<svg width="20" height="20" viewBox="0 0 20 20" fill="none" xmlns="http://www.w3.org/2000/svg">
<path fill-rule="evenodd" clip-rule="evenodd" d="M4.15406 0C3.01289 0 2.16848 1.25385 2.20629 2.61362C2.24258 3.91998 2.19543 5.61192 1.85613 6.99169C1.51562 8.37534 0.940156 9.25215 0 9.36469V10.6353C0.940156 10.7481 1.51562 11.6245 1.85609 13.0083C2.19543 14.3881 2.24254 16.08 2.20625 17.3864C2.16844 18.746 3.01285 20 4.15422 20H15.8475C16.9886 20 17.8329 18.7461 17.7951 17.3864C17.7588 16.08 17.8059 14.3881 18.1452 13.0083C18.4857 11.6245 19.0598 10.7477 20 10.6353V9.36469C19.0598 9.25191 18.4858 8.37554 18.1452 6.99169C17.8059 5.61212 17.7588 3.91998 17.7951 2.61362C17.8329 1.25405 16.9886 0 15.8475 0H4.15391H4.15406ZM13.5593 12.3113C13.5593 14.1836 12.4468 15.3192 10.6005 15.3192H7.45762C7.36771 15.3192 7.28149 15.2743 7.21792 15.1945C7.15435 15.1147 7.11863 15.0065 7.11863 14.8936V5.10641C7.11863 4.99355 7.15435 4.88531 7.21792 4.80551C7.28149 4.72571 7.36771 4.68087 7.45762 4.68087H10.5826C12.1221 4.68087 13.1325 5.72769 13.1325 7.3349C13.1325 8.46297 12.4528 9.47286 11.5869 9.64979V9.70863C12.7656 9.87094 13.5593 10.8958 13.5593 12.3113ZM10.2578 6.0298H8.46578V9.20733H9.97512C11.1419 9.20733 11.7853 8.61753 11.7853 7.56331C11.7852 6.57533 11.232 6.0298 10.2578 6.0298ZM8.46578 10.4681V13.9698H10.3237C11.5386 13.9698 12.1821 13.3579 12.1821 12.2079C12.1821 11.0579 11.5205 10.4679 10.2456 10.4679H8.46578V10.4681Z" fill="#7952B3"/>
</svg>
