<svg width="21" height="21" viewBox="0 0 21 21" fill="none" xmlns="http://www.w3.org/2000/svg">
<path d="M20.7998 0.5L18.9778 18.4979L10.7876 20.5L2.61993 18.5007L0.799805 0.5H20.7998Z" fill="#264DE4"/>
<path d="M17.4179 17.352L18.9749 1.97192H10.7998V18.9698L17.4179 17.352Z" fill="#2965F1"/>
<path d="M4.97217 8.64795L5.19658 10.8556H10.7996V8.64795H4.97217Z" fill="#EBEBEB"/>
<path d="M10.7998 4.17944H10.7911H4.52148L4.74909 6.38718H10.7998V4.17944Z" fill="#EBEBEB"/>
<path d="M10.7997 16.6785V14.3816L10.7888 14.3841L8.00026 13.7202L7.82201 11.9595H6.46702H5.30859L5.65937 15.4259L10.7882 16.6813L10.7997 16.6785Z" fill="#EBEBEB"/>
<path d="M13.8742 10.8556L13.5835 13.7188L10.791 14.3834V16.6803L15.9239 15.4259L15.9616 15.0529L16.5499 9.24075L16.611 8.64792L17.063 4.17944H10.791V6.38718H14.3191L14.0913 8.64792H10.791V10.8556H13.8742Z" fill="white"/>
</svg>
