<svg width="20" height="20" viewBox="0 0 20 20" fill="none" xmlns="http://www.w3.org/2000/svg">
<g filter="url(#filter0_i_186_264)">
<path d="M1.81918 18.0068L0 0H20L18.1808 17.9971L9.98346 20" fill="#E44D26"/>
<path d="M10 18.4688V1.47803H18.1753L16.6152 16.8402" fill="#F16529"/>
<path d="M3.71533 3.68018H9.99979V5.88727H6.46065L6.69218 8.14785H9.99979V10.3501H4.3989L3.71533 3.68018ZM4.50916 11.4585H7.02294L7.19934 13.2232L9.99979 13.8844V16.1887L4.86197 14.9247" fill="#EBEBEB"/>
<path d="M16.2622 3.68018H9.98877V5.88727H16.0307L16.2622 3.68018ZM15.8046 8.14785H9.98877V10.3549H13.0759L12.7837 13.2232L9.98877 13.8844V16.179L15.1156 14.9247" fill="white"/>
</g>
<defs>
<filter id="filter0_i_186_264" x="0" y="0" width="20" height="24" filterUnits="userSpaceOnUse" color-interpolation-filters="sRGB">
<feFlood flood-opacity="0" result="BackgroundImageFix"/>
<feBlend mode="normal" in="SourceGraphic" in2="BackgroundImageFix" result="shape"/>
<feColorMatrix in="SourceAlpha" type="matrix" values="0 0 0 0 0 0 0 0 0 0 0 0 0 0 0 0 0 0 127 0" result="hardAlpha"/>
<feOffset dy="4"/>
<feGaussianBlur stdDeviation="2"/>
<feComposite in2="hardAlpha" operator="arithmetic" k2="-1" k3="1"/>
<feColorMatrix type="matrix" values="0 0 0 0 0 0 0 0 0 0 0 0 0 0 0 0 0 0 0.25 0"/>
<feBlend mode="normal" in2="shape" result="effect1_innerShadow_186_264"/>
</filter>
</defs>
</svg>
