<svg width="21" height="21" viewBox="0 0 21 21" fill="none" xmlns="http://www.w3.org/2000/svg">
<path d="M20.6001 0.5H0.600098V20.5H20.6001V0.5Z" fill="#F7DF1E"/>
<path d="M14.0351 16.1251C14.438 16.7829 14.9621 17.2664 15.8891 17.2664C16.6678 17.2664 17.1653 16.8772 17.1653 16.3394C17.1653 15.695 16.6541 15.4667 15.797 15.0918L15.3272 14.8902C13.971 14.3124 13.07 13.5886 13.07 12.0585C13.07 10.6489 14.144 9.57593 15.8224 9.57593C17.0173 9.57593 17.8764 9.9918 18.4954 11.0807L17.0319 12.0204C16.7097 11.4426 16.3621 11.215 15.8224 11.215C15.2719 11.215 14.923 11.5642 14.923 12.0204C14.923 12.5842 15.2722 12.8124 16.0786 13.1616L16.5484 13.3629C18.1453 14.0477 19.0468 14.7458 19.0468 16.3153C19.0468 18.0074 17.7176 18.9343 15.9326 18.9343C14.1872 18.9343 13.0595 18.1026 12.5078 17.0124L14.0351 16.1251ZM7.39605 16.288C7.69129 16.8118 7.95986 17.2547 8.60558 17.2547C9.22304 17.2547 9.61256 17.0131 9.61256 16.0737V9.68323H11.4919V16.0991C11.4919 18.0451 10.351 18.9308 8.68558 18.9308C7.18081 18.9308 6.30939 18.1521 5.86621 17.2142L7.39605 16.288Z" fill="black"/>
</svg>
