<svg width="20" height="21" viewBox="0 0 20 21" fill="none" xmlns="http://www.w3.org/2000/svg">
<path d="M19.9887 5.02452C19.9961 5.05119 19.9999 5.07868 20 5.1063V9.39924C20 9.45434 19.985 9.50847 19.9566 9.55615C19.9282 9.60382 19.8873 9.64337 19.8381 9.67078L16.1288 11.7453V15.8571C16.1288 15.969 16.0676 16.0722 15.9677 16.1286L8.22492 20.4583C8.20719 20.4681 8.18786 20.4744 8.16853 20.481C8.16128 20.4834 8.15443 20.4877 8.14678 20.4896C8.09265 20.5035 8.03576 20.5035 7.98163 20.4896C7.97277 20.4873 7.96472 20.4826 7.95626 20.4794C7.93853 20.4732 7.92001 20.4677 7.90309 20.4583L0.161921 16.1286C0.112743 16.1011 0.0718817 16.0616 0.0434545 16.0139C0.0150274 15.9663 3.89654e-05 15.9121 0 15.8571L0 2.97821C0 2.95004 0.00402787 2.92265 0.011278 2.89605C0.0136948 2.88705 0.0193338 2.87883 0.0225561 2.86983C0.0285979 2.8534 0.0342369 2.83658 0.0430982 2.82132C0.0491401 2.81114 0.0580014 2.80293 0.0652515 2.79354C0.0745156 2.78102 0.0829742 2.76811 0.0938494 2.75715C0.103114 2.74815 0.115197 2.7415 0.12567 2.73367C0.13735 2.72428 0.147823 2.71411 0.161115 2.70668H0.161518L4.0323 0.541815C4.08132 0.514419 4.13687 0.5 4.19342 0.5C4.24997 0.5 4.30552 0.514419 4.35453 0.541815L8.22532 2.70668H8.22612C8.23901 2.7145 8.24989 2.72428 8.26157 2.73328C8.27204 2.74111 8.28372 2.74815 8.29299 2.75676C8.30427 2.76811 8.31232 2.78102 8.32199 2.79354C8.32884 2.80293 8.3381 2.81114 8.34374 2.82132C8.353 2.83697 8.35824 2.8534 8.36468 2.86983C8.36791 2.87883 8.37354 2.88705 8.37596 2.89644C8.38338 2.9231 8.38717 2.95059 8.38724 2.97821V11.0222L11.6128 9.21809V5.10591C11.6128 5.07852 11.6168 5.05074 11.624 5.02452C11.6269 5.01513 11.6321 5.00692 11.6353 4.99792C11.6418 4.98148 11.6474 4.96466 11.6563 4.9494C11.6623 4.93923 11.6712 4.93101 11.678 4.92162C11.6877 4.9091 11.6957 4.89619 11.707 4.88523C11.7163 4.87624 11.728 4.86958 11.7384 4.86176C11.7505 4.85237 11.761 4.8422 11.7739 4.83476H11.7743L15.6455 2.6699C15.6945 2.64246 15.75 2.62802 15.8066 2.62802C15.8631 2.62802 15.9187 2.64246 15.9677 2.6699L19.8385 4.83476C19.8522 4.84259 19.8626 4.85237 19.8747 4.86137C19.8848 4.86919 19.8965 4.87623 19.9057 4.88484C19.917 4.89619 19.9251 4.9091 19.9347 4.92162C19.942 4.93101 19.9509 4.93923 19.9565 4.9494C19.9658 4.96466 19.971 4.98148 19.9774 4.99792C19.9811 5.00692 19.9863 5.01513 19.9887 5.02452ZM19.3547 9.21809V5.6482L18.0002 6.40568L16.1288 7.45231V11.0222L19.3551 9.21809H19.3547ZM15.4839 15.6759V12.1037L13.6432 13.1249L8.38684 16.039V19.6449L15.4839 15.6759ZM0.645265 3.52011V15.6759L7.74157 19.6445V16.0394L4.03432 14.0013L4.03311 14.0005L4.0315 13.9997C4.01901 13.9927 4.00854 13.9825 3.99686 13.9739C3.98679 13.9661 3.97511 13.9598 3.96625 13.9512L3.96544 13.95C3.95497 13.9403 3.94772 13.9281 3.93886 13.9172C3.9308 13.9066 3.92113 13.8976 3.91469 13.8866L3.91429 13.8855C3.90704 13.8737 3.90261 13.8596 3.89737 13.8463C3.89213 13.8346 3.88529 13.8237 3.88206 13.8111V13.8107C3.87804 13.7959 3.87723 13.7802 3.87562 13.765C3.87401 13.7532 3.87079 13.7415 3.87079 13.7298V5.32423L1.99984 4.27721L0.645265 3.52051V3.52011ZM4.19382 1.17488L0.968703 2.97821L4.19302 4.78155L7.41773 2.97782L4.19302 1.17488H4.19382ZM5.87103 12.4292L7.74197 11.383V3.52011L6.3874 4.2776L4.51605 5.32423V13.1871L5.87103 12.4292ZM15.8066 3.30296L12.5819 5.1063L15.8066 6.90963L19.0309 5.10591L15.8066 3.30296ZM15.4839 7.45231L13.6126 6.40568L12.258 5.6482V9.21809L14.129 10.2643L15.4839 11.0222V7.45231ZM8.0638 15.4971L12.7937 12.8741L15.1581 11.5633L11.9358 9.76116L8.22572 11.836L4.84432 13.727L8.0638 15.4971Z" fill="#FF2D20"/>
</svg>
