<svg width="20" height="20" viewBox="0 0 20 20" fill="none" xmlns="http://www.w3.org/2000/svg">
<path d="M18.4221 15.4686C17.3339 15.441 16.4905 15.5519 15.7832 15.8567C15.5791 15.9398 15.2526 15.9398 15.2254 16.2032C15.3343 16.314 15.3479 16.4942 15.4431 16.6466C15.6065 16.9237 15.892 17.2979 16.1504 17.492C16.436 17.7136 16.7218 17.9353 17.0209 18.1293C17.5515 18.4619 18.1501 18.6559 18.667 18.9885C18.9663 19.1823 19.2654 19.4319 19.5647 19.6397C19.7143 19.7505 19.8095 19.9308 20 20V19.9585C19.9047 19.8337 19.8775 19.6536 19.7823 19.515C19.6465 19.3764 19.5103 19.2517 19.3742 19.1131C18.9798 18.5728 18.4901 18.1016 17.9596 17.7136C17.5244 17.4087 16.5721 16.993 16.3953 16.4803C16.3953 16.4803 16.3816 16.4665 16.3681 16.4526C16.6673 16.4249 17.0209 16.314 17.3067 16.2309C17.7692 16.1061 18.1908 16.1339 18.667 16.0091C18.8845 15.9537 19.1022 15.8844 19.3198 15.8151V15.6905C19.0751 15.441 18.8982 15.1085 18.6397 14.8729C17.946 14.263 17.1842 13.6672 16.3953 13.1684C15.9736 12.8912 15.4294 12.7111 14.9806 12.4755C14.8175 12.3923 14.5453 12.3508 14.4502 12.2122C14.2052 11.9074 14.0692 11.5056 13.8924 11.1453C13.498 10.383 13.117 9.5378 12.7769 8.73415C12.5322 8.19365 12.3826 7.65316 12.0833 7.1544C10.6822 4.79864 9.15872 3.37135 6.81913 1.97169C6.31578 1.68073 5.71728 1.556 5.07797 1.40364C4.73802 1.3897 4.39784 1.36206 4.05782 1.34812C3.84015 1.25111 3.62249 0.987871 3.43203 0.863142C2.65683 0.364225 0.657111 -0.716522 0.0858178 0.710775C-0.281492 1.61144 0.629981 2.49824 0.942718 2.95566C1.17414 3.27434 1.47328 3.63458 1.63653 3.99491C1.73175 4.23035 1.75888 4.47997 1.85411 4.72935C2.07186 5.3389 2.27576 6.01806 2.56153 6.58627C2.71117 6.87723 2.87434 7.18204 3.0648 7.44536C3.17363 7.59772 3.36401 7.6671 3.4049 7.91648C3.21452 8.19365 3.20084 8.60942 3.09193 8.95581C2.60226 10.5217 2.79279 12.4617 3.48645 13.6118C3.70403 13.9581 4.22099 14.7205 4.91472 14.4294C5.5269 14.18 5.39086 13.3901 5.56756 12.6973C5.60853 12.5308 5.58132 12.4201 5.66286 12.3092V12.337C5.85332 12.7249 6.0437 13.0992 6.22055 13.4872C6.64228 14.1661 7.37674 14.8729 7.98885 15.3441C8.31542 15.5934 8.57382 16.023 8.98195 16.1754V16.1338H8.95466C8.87304 16.0091 8.7506 15.9537 8.64184 15.8566C8.39705 15.6073 8.12489 15.3024 7.93451 15.0252C7.3633 14.2492 6.85987 13.3901 6.41101 12.5032C6.19342 12.0737 6.00289 11.6025 5.82611 11.173C5.74441 11.0065 5.74441 10.7572 5.60845 10.6741C5.40439 10.979 5.10518 11.2423 4.95553 11.6164C4.69721 12.2122 4.66992 12.9467 4.57469 13.7087C4.52028 13.7228 4.54741 13.7087 4.5202 13.7366C4.08503 13.6256 3.93538 13.1684 3.77205 12.7804C3.36393 11.7965 3.29591 10.2168 3.6497 9.08054C3.74492 8.7895 4.15305 7.87498 3.9898 7.5978C3.90817 7.33449 3.63601 7.18204 3.48645 6.97424C3.30967 6.71092 3.11914 6.37847 2.99678 6.08735C2.67028 5.31134 2.50703 4.45217 2.1534 3.67616C1.99015 3.31583 1.70462 2.9418 1.47328 2.60919C1.21488 2.23508 0.929192 1.97169 0.725131 1.52829C0.657189 1.37592 0.561882 1.12646 0.670715 0.960154C0.697923 0.849283 0.752261 0.807787 0.861172 0.780069C1.03803 0.627543 1.54138 0.821566 1.71807 0.904719C2.22142 1.11244 2.64307 1.30662 3.0648 1.59758C3.25518 1.73617 3.45924 1.99948 3.70403 2.06878H3.98972C4.42505 2.16571 4.91464 2.0965 5.32276 2.22115C6.04378 2.45667 6.69662 2.80314 7.28159 3.17732C9.06357 4.32744 10.5325 5.96262 11.5256 7.91648C11.6888 8.23507 11.7568 8.52626 11.9064 8.85872C12.1922 9.5378 12.5458 10.2307 12.8314 10.8958C13.117 11.547 13.389 12.2122 13.7972 12.7527C14.0012 13.0436 14.8173 13.1961 15.1846 13.3486C15.4567 13.4732 15.8784 13.5842 16.1232 13.7365C16.5857 14.0274 17.0481 14.3602 17.4835 14.6788C17.7011 14.8451 18.3812 15.1916 18.4221 15.4686Z" fill="#00546B"/>
<path d="M4.54736 3.42651C4.31617 3.42651 4.15299 3.45439 3.98975 3.49589V3.52361H4.01695C4.12586 3.74535 4.31617 3.89779 4.45213 4.09174C4.56104 4.3134 4.65619 4.53522 4.7651 4.75696C4.77862 4.74302 4.79223 4.72924 4.79223 4.72924C4.98276 4.59057 5.07791 4.36891 5.07791 4.0363C4.99629 3.93937 4.98269 3.84236 4.91467 3.74535C4.83312 3.60668 4.65619 3.53746 4.54736 3.42651Z" fill="#00546B"/>
</svg>
