<svg width="21" height="21" viewBox="0 0 21 21" fill="none" xmlns="http://www.w3.org/2000/svg">
<path d="M9.43112 0.713372C9.9776 0.429517 10.6894 0.428235 11.2354 0.713372C13.9823 2.12189 16.7301 3.5282 19.4766 4.93757C19.9932 5.20162 20.3387 5.72331 20.3334 6.26345V14.7376C20.3373 15.3001 19.9576 15.8343 19.4126 16.0924C16.6747 17.4931 13.9382 18.8956 11.2008 20.2963C10.643 20.5857 9.91693 20.5634 9.37657 20.2503C8.55575 19.8185 7.73351 19.3889 6.91261 18.9575C6.74487 18.8667 6.55578 18.7945 6.43733 18.6469C6.54204 18.5188 6.72925 18.5029 6.88137 18.447C7.224 18.3481 7.53869 18.1894 7.85345 18.0354C7.93305 17.986 8.03022 18.0049 8.10652 18.0491C8.80842 18.4143 9.50412 18.7902 10.2084 19.1519C10.3586 19.2306 10.5107 19.1261 10.6392 19.0611C13.3259 17.6832 16.0159 16.3104 18.7022 14.932C18.8017 14.8886 18.8567 14.7927 18.8486 14.6938C18.8505 11.8983 18.8491 9.10235 18.8496 6.30691C18.861 6.19465 18.7894 6.09143 18.6775 6.04549C15.9491 4.65115 13.2221 3.25467 10.4942 1.85997C10.4469 1.83049 10.3909 1.81467 10.3336 1.81459C10.2762 1.81451 10.2202 1.83018 10.1728 1.85955C7.44489 3.25467 4.71837 4.65243 1.99043 6.0467C1.87897 6.09271 1.80417 6.19422 1.81743 6.30691C1.8179 9.10235 1.81743 11.8983 1.81743 14.6942C1.8127 14.7425 1.82439 14.7909 1.85091 14.8329C1.87743 14.875 1.91753 14.9087 1.96579 14.9295C2.69375 15.3041 3.42265 15.676 4.15108 16.0493C4.56146 16.2498 5.06531 16.3689 5.51745 16.2153C5.91643 16.0855 6.19611 15.716 6.1885 15.3315C6.19227 12.5524 6.18661 9.77285 6.19132 6.99414C6.18136 6.87077 6.31032 6.76884 6.44251 6.78045C6.79228 6.77831 7.14253 6.77617 7.4923 6.7813C7.6383 6.77831 7.73877 6.91116 7.72072 7.03545C7.71931 9.83218 7.72449 12.629 7.71836 15.4257C7.71931 16.1711 7.38186 16.9821 6.6221 17.3468C5.68613 17.7868 4.52927 17.6935 3.6046 17.2716C2.80411 16.909 2.0402 16.4811 1.25392 16.0927C0.707513 15.8361 0.329717 15.2998 0.333564 14.7377V6.26345C0.327834 5.71213 0.687105 5.18096 1.21977 4.92076C3.9572 3.51886 6.69416 2.1159 9.43112 0.713372Z" fill="#8CC84B"/>
<path d="M11.8192 6.58353C13.0131 6.5138 14.2913 6.54222 15.3656 7.07595C16.1974 7.48495 16.6586 8.34336 16.6733 9.18196C16.65 9.29507 16.5197 9.35747 16.4007 9.3497C16.0543 9.34928 15.7079 9.35398 15.3615 9.34757C15.2145 9.3527 15.1291 9.22975 15.1107 9.11186C15.0112 8.71062 14.77 8.31323 14.3538 8.11969C13.715 7.82943 12.9742 7.84403 12.2776 7.85008C11.769 7.87459 11.2221 7.91455 10.7913 8.18594C10.4605 8.39151 10.36 8.8065 10.4781 9.14071C10.5894 9.38069 10.8946 9.45812 11.1444 9.52949C12.5832 9.87097 14.1079 9.83699 15.5192 10.2864C16.1036 10.4696 16.6752 10.8257 16.8752 11.3809C17.1368 12.125 17.0221 13.0144 16.4387 13.6117C15.9656 14.1033 15.2766 14.3708 14.5894 14.5161C13.6752 14.7011 12.7264 14.7058 11.798 14.6237C10.9249 14.5334 10.0164 14.3252 9.34248 13.7855C8.76617 13.3314 8.48469 12.6238 8.51264 11.9409C8.51931 11.8256 8.64584 11.7452 8.76759 11.7547C9.11642 11.7521 9.46525 11.7512 9.81408 11.7551C9.95341 11.746 10.0567 11.8553 10.0639 11.9745C10.1282 12.3568 10.2865 12.758 10.6539 12.9847C11.3629 13.3997 12.2524 13.3713 13.0642 13.3829C13.7368 13.3559 14.4917 13.3477 15.0406 12.9443C15.3302 12.7142 15.4159 12.3293 15.3377 11.9981C15.2529 11.7186 14.9306 11.5883 14.6538 11.5031C13.2335 11.0954 11.6918 11.2433 10.2851 10.7822C9.71408 10.5991 9.16187 10.2528 8.94247 9.72046C8.63634 8.96698 8.77661 8.035 9.42114 7.45782C10.0496 6.8837 10.9567 6.6626 11.8192 6.58346V6.58353Z" fill="#8CC84B"/>
</svg>
