<svg width="21" height="21" viewBox="0 0 21 21" fill="none" xmlns="http://www.w3.org/2000/svg">
<path fill-rule="evenodd" clip-rule="evenodd" d="M10.5 20.5C16.0229 20.5 20.5 16.0227 20.5 10.5C20.5 4.97732 16.0229 0.5 10.5 0.5C4.97725 0.5 0.5 4.97732 0.5 10.5C0.5 16.0227 4.97725 20.5 10.5 20.5Z" fill="#6E81B6"/>
<path fill-rule="evenodd" clip-rule="evenodd" d="M12.5266 13.732L13.0226 8.69445C13.1346 7.55746 13.0414 6.70943 12.746 6.17351C12.4598 5.65501 11.9739 5.40279 11.2607 5.40279H10.4017L10.6474 2.90691C10.652 2.86046 10.6514 2.81257 10.6455 2.76669C10.6396 2.7208 10.6286 2.67805 10.6134 2.64151C10.5981 2.60497 10.579 2.57554 10.5573 2.55534C10.5356 2.53514 10.5119 2.52466 10.4879 2.52466H9.30229C9.22442 2.52466 9.15755 2.6337 9.14268 2.78451L8.61582 8.13252C8.56793 7.53074 8.44991 7.01342 8.26103 6.58655C7.91326 5.80104 7.36319 5.40279 6.62593 5.40279H4.32793C4.25005 5.40279 4.18318 5.51184 4.16831 5.66241L3.10214 16.4878C3.09283 16.582 3.10528 16.6789 3.13624 16.7528C3.16708 16.8271 3.21303 16.8698 3.26176 16.8698H4.45671C4.53458 16.8698 4.60145 16.7607 4.61633 16.6097L4.87425 13.9914H5.76375C6.23051 13.9914 6.62278 13.8917 6.92896 13.695C7.24202 13.4941 7.53018 13.1534 7.78412 12.6843C7.98932 12.3123 8.15885 11.8957 8.28933 11.4464L8.07639 13.6091C8.06707 13.7034 8.07953 13.8007 8.11049 13.8742C8.14132 13.9484 8.18739 13.9912 8.236 13.9912H9.42164C9.49952 13.9912 9.56639 13.8821 9.58126 13.7315L10.1664 7.78939H10.98C11.3266 7.78939 11.4282 7.92564 11.4559 7.9841C11.4809 8.03755 11.5329 8.22581 11.4745 8.81924L11.0029 13.6089C10.9984 13.6553 10.9991 13.7032 11.0051 13.749C11.011 13.7948 11.022 13.8375 11.0372 13.874C11.0525 13.9105 11.0716 13.9399 11.0933 13.9601C11.1149 13.9803 11.1386 13.9908 11.1626 13.9909H12.3671C12.4047 13.9911 12.4413 13.9653 12.4704 13.9181C12.4995 13.8708 12.5194 13.805 12.5266 13.732ZM7.02969 9.56968C6.9552 10.3249 6.81493 10.8634 6.6125 11.1705C6.40694 11.4833 6.07815 11.6418 5.63521 11.6418H5.10558L5.48854 7.75288H6.17332C6.67635 7.75288 6.87902 7.96501 6.9604 8.14278C7.07322 8.3895 7.09716 8.88319 7.02969 9.56968ZM17.5208 6.58655C17.1731 5.80104 16.623 5.40279 15.8858 5.40279H13.5878C13.5098 5.40279 13.443 5.51184 13.4281 5.66241L12.3621 16.4878C12.3527 16.582 12.3651 16.6789 12.3961 16.7528C12.427 16.8268 12.4731 16.8698 12.5215 16.8698H13.7165C13.7945 16.8698 13.8613 16.7607 13.8762 16.6097L14.1341 13.9914H15.0237C15.4906 13.9914 15.8825 13.8917 16.1888 13.695C16.502 13.4941 16.7901 13.1534 17.044 12.6843C17.2558 12.3003 17.4301 11.8687 17.5621 11.4027C17.6942 10.9367 17.7888 10.417 17.8441 9.85768C17.9799 8.47826 17.8712 7.37778 17.5208 6.58655ZM16.3574 9.56968C16.2828 10.3249 16.1425 10.8634 15.9403 11.1705C15.7346 11.4833 15.4058 11.6418 14.963 11.6418H14.4333L14.8161 7.75288H15.501C16.004 7.75288 16.2067 7.96501 16.2882 8.14278C16.4008 8.3895 16.4248 8.88319 16.3574 9.56968Z" fill="white"/>
<path fill-rule="evenodd" clip-rule="evenodd" d="M6.13923 7.43205C6.59317 7.43205 6.89584 7.59741 7.04711 7.92813C7.19826 8.25884 7.2343 8.82674 7.15521 9.6311C7.0725 10.4689 6.91337 11.0668 6.67757 11.4252C6.44177 11.7836 6.08288 11.9626 5.60112 11.9626H4.87414L5.32034 7.43205H6.13923ZM3.22754 16.5489H4.42249L4.70605 13.671H5.72966C6.18131 13.671 6.5529 13.5773 6.84456 13.3899C7.13623 13.2026 7.40141 12.8889 7.63999 12.4481C7.84024 12.0852 8.00227 11.6843 8.12634 11.2463C8.25029 10.8082 8.33832 10.325 8.39043 9.79645C8.51692 8.5132 8.42151 7.51366 8.10445 6.79782C7.78752 6.08175 7.28315 5.72383 6.59184 5.72383H4.29383L3.22754 16.5489ZM9.26809 2.8457H10.4537L10.1703 5.72383H11.2267C11.891 5.72383 12.3497 5.95242 12.6019 6.40984C12.8542 6.86726 12.9297 7.60863 12.8289 8.63346L12.3329 13.671H11.1284L11.6 8.88114C11.6535 8.33615 11.6339 7.96463 11.5407 7.76635C11.4475 7.5683 11.249 7.46904 10.9458 7.46904H9.99822L9.38744 13.671H8.2018L9.26809 2.8457ZM15.4669 7.43205C15.9209 7.43205 16.2234 7.59741 16.3748 7.92813C16.526 8.25884 16.5619 8.82674 16.4828 9.6311C16.4003 10.4689 16.2412 11.0668 16.0053 11.4252C15.7696 11.7836 15.4106 11.9626 14.9291 11.9626H14.2021L14.6482 7.43205H15.4669ZM12.555 16.5489H13.7501L14.0335 13.671H15.0571C15.5089 13.671 15.8805 13.5773 16.1721 13.3899C16.4638 13.2026 16.729 12.8889 16.9676 12.4481C17.1678 12.0852 17.3299 11.6843 17.4538 11.2463C17.5777 10.8082 17.6659 10.325 17.7181 9.79645C17.8445 8.5132 17.7491 7.51366 17.4322 6.79782C17.115 6.08175 16.6107 5.72383 15.9194 5.72383H13.6214L12.555 16.5489Z" fill="black"/>
</svg>
