<svg width="22" height="21" viewBox="0 0 22 21" fill="none" xmlns="http://www.w3.org/2000/svg">
<path d="M11.1664 12.2633C12.1956 12.2633 13.03 11.4739 13.03 10.5001C13.03 9.52625 12.1956 8.73682 11.1664 8.73682C10.1371 8.73682 9.30273 9.52625 9.30273 10.5001C9.30273 11.4739 10.1371 12.2633 11.1664 12.2633Z" fill="#61DAFB"/>
<path d="M11.1665 14.1125C16.6894 14.1125 21.1665 12.4951 21.1665 10.5C21.1665 8.50482 16.6894 6.88745 11.1665 6.88745C5.64366 6.88745 1.1665 8.50482 1.1665 10.5C1.1665 12.4951 5.64366 14.1125 11.1665 14.1125Z" stroke="#61DAFB"/>
<path d="M7.85986 12.3062C10.6213 16.8315 14.3403 19.6913 16.1665 18.6937C17.9927 17.6962 17.2346 13.219 14.4731 8.69374C11.7117 4.16846 7.99271 1.30869 6.1665 2.30625C4.34029 3.30382 5.09844 7.78097 7.85986 12.3062Z" stroke="#61DAFB"/>
<path d="M7.85986 8.69379C5.09844 13.2191 4.34029 17.6962 6.1665 18.6938C7.99271 19.6914 11.7117 16.8316 14.4731 12.3063C17.2346 7.78101 17.9927 3.30386 16.1665 2.3063C14.3403 1.30873 10.6213 4.16851 7.85986 8.69379Z" stroke="#61DAFB"/>
</svg>
