<svg width="21" height="21" viewBox="0 0 21 21" fill="none" xmlns="http://www.w3.org/2000/svg">
<path d="M10.2856 0.5C7.6189 0.5 5.95227 2.72227 5.28552 7.16639C6.28565 4.94412 7.45233 4.11108 8.78558 4.66644C9.54637 4.98331 10.0901 5.90349 10.692 6.92165C11.6724 8.58022 12.8071 10.4998 15.2858 10.4998C17.9523 10.4998 19.6191 8.27752 20.2856 3.83299C19.2858 6.05525 18.1191 6.88871 16.7856 6.33335C16.025 6.01648 15.4813 5.0963 14.8794 4.07814C13.899 2.41957 12.7641 0.5 10.2856 0.5ZM5.28552 10.4998C2.61902 10.4998 0.952145 12.7221 0.285645 17.1666C1.28552 14.9443 2.45221 14.1109 3.78571 14.6666C4.54624 14.9839 5.08995 15.9037 5.69192 16.9214C6.67229 18.58 7.80722 20.5 10.2856 20.5C12.9524 20.5 14.619 18.2777 15.2858 13.8332C14.2856 16.0555 13.119 16.8889 11.7857 16.3331C11.0249 16.0167 10.4812 15.0961 9.87924 14.0784C8.89888 12.4198 7.7642 10.4998 5.28552 10.4998Z" fill="#06B6D4"/>
</svg>
