<svg width="520" height="260" viewBox="0 0 520 260" fill="none" xmlns="http://www.w3.org/2000/svg">
<rect width="520" height="260" fill="url(#paint0_linear_366_281)"/>
<path d="M402.863 66.5562C402.953 66.8892 403 67.2326 403 67.5779V121.24C403 122.642 402.25 123.936 401.032 124.634L355.966 150.566V201.962C355.966 202.65 355.785 203.326 355.442 203.921C355.098 204.517 354.604 205.012 354.009 205.358L259.934 259.479C259.718 259.601 259.484 259.679 259.248 259.763C259.16 259.791 259.078 259.846 258.985 259.87C258.327 260.043 257.636 260.043 256.978 259.87C256.87 259.842 256.772 259.782 256.669 259.743C256.454 259.664 256.229 259.596 256.024 259.479L161.968 205.357C161.37 205.014 160.874 204.519 160.528 203.923C160.183 203.328 160.001 202.651 160 201.962V40.9776C160 40.6247 160.049 40.2822 160.137 39.9502C160.166 39.8373 160.234 39.7349 160.274 39.622C160.347 39.4171 160.417 39.2065 160.524 39.0158C160.597 38.8887 160.704 38.7862 160.793 38.6686C160.906 38.5121 161.008 38.3508 161.14 38.2133C161.253 38.1013 161.4 38.0179 161.527 37.9202C161.67 37.8025 161.796 37.6754 161.957 37.5824H161.962L208.992 10.5221C209.588 10.18 210.263 10 210.95 10C211.637 10 212.312 10.18 212.908 10.5221L259.938 37.5824H259.947C260.104 37.6811 260.237 37.8025 260.378 37.9154C260.505 38.0131 260.648 38.1013 260.76 38.2095C260.897 38.3508 260.995 38.513 261.112 38.6686C261.195 38.7862 261.308 38.8887 261.377 39.0158C261.489 39.2112 261.552 39.4171 261.631 39.6229C261.67 39.7349 261.738 39.8373 261.768 39.955C261.858 40.2879 261.904 40.6323 261.905 40.9776V141.526L301.095 118.974V67.5731C301.095 67.2316 301.144 66.8835 301.232 66.5562C301.267 66.4386 301.33 66.3361 301.369 66.2242C301.448 66.0183 301.516 65.8068 301.623 65.6171C301.697 65.49 301.804 65.3875 301.888 65.2699C302.005 65.1134 302.103 64.9521 302.239 64.8145C302.353 64.7026 302.495 64.6191 302.622 64.5214C302.769 64.4038 302.896 64.2767 303.053 64.1837H303.058L350.092 37.1233C350.688 36.7803 351.363 36.5998 352.05 36.5998C352.737 36.5998 353.413 36.7803 354.008 37.1233L401.038 64.1837C401.204 64.2814 401.331 64.4038 401.478 64.5157C401.6 64.6144 401.742 64.7026 401.855 64.8098C401.992 64.9521 402.09 65.1134 402.206 65.2699C402.296 65.3875 402.403 65.49 402.472 65.6171C402.584 65.8068 402.648 66.0183 402.726 66.2242C402.77 66.3361 402.834 66.4386 402.863 66.5562ZM395.16 118.975V74.352L378.702 83.8202L355.965 96.9036V141.527L395.165 118.975H395.16ZM348.13 199.698V155.044L325.765 167.809L261.901 204.236V249.309L348.13 199.698ZM167.84 47.7507V199.698L254.06 249.305V204.241L209.018 178.765L209.003 178.755L208.984 178.746C208.833 178.658 208.704 178.531 208.563 178.423C208.44 178.325 208.298 178.247 208.191 178.139L208.181 178.125C208.054 178.002 207.966 177.85 207.859 177.714C207.76 177.581 207.643 177.469 207.564 177.332L207.56 177.317C207.471 177.171 207.417 176.995 207.354 176.829C207.29 176.682 207.207 176.544 207.168 176.389V176.384C207.119 176.198 207.11 176.002 207.09 175.811C207.071 175.665 207.031 175.518 207.031 175.371V70.3033L184.298 57.2142L167.84 47.7564V47.7507ZM210.955 18.4355L171.769 40.9776L210.946 63.5187L250.125 40.9719L210.946 18.4355H210.955ZM231.333 159.114L254.065 146.036V47.7507L237.608 57.2199L214.87 70.3023V168.587L231.333 159.114ZM352.05 45.0367L312.87 67.5779L352.05 90.12L391.225 67.5731L352.05 45.0367ZM348.129 96.9036L325.393 83.8202L308.935 74.352V118.975L331.667 132.054L348.13 141.527L348.129 96.9036ZM257.976 197.463L315.444 164.675L344.171 148.29L305.02 125.763L259.942 151.699L218.858 175.337L257.976 197.463Z" fill="#FF2D20" fill-opacity="0.2"/>
<rect x="331" y="213" width="168" height="24" rx="12" fill="#212529"/>
<path d="M351.044 222.352L349.1 229H347.288L346.076 224.356L344.864 229H343.04L341.084 222.352H342.788L343.964 227.416L345.236 222.352H347.012L348.26 227.404L349.436 222.352H351.044ZM360.669 222.352L358.725 229H356.913L355.701 224.356L354.489 229H352.665L350.709 222.352H352.413L353.589 227.416L354.861 222.352H356.637L357.885 227.404L359.061 222.352H360.669ZM370.294 222.352L368.35 229H366.538L365.326 224.356L364.114 229H362.29L360.334 222.352H362.038L363.214 227.416L364.486 222.352H366.262L367.51 227.404L368.686 222.352H370.294ZM371.447 229.084C371.143 229.084 370.891 228.992 370.691 228.808C370.499 228.616 370.403 228.38 370.403 228.1C370.403 227.82 370.499 227.588 370.691 227.404C370.891 227.212 371.143 227.116 371.447 227.116C371.743 227.116 371.987 227.212 372.179 227.404C372.371 227.588 372.467 227.82 372.467 228.1C372.467 228.38 372.371 228.616 372.179 228.808C371.987 228.992 371.743 229.084 371.447 229.084ZM374.172 221.56C373.876 221.56 373.628 221.468 373.428 221.284C373.236 221.092 373.14 220.856 373.14 220.576C373.14 220.296 373.236 220.064 373.428 219.88C373.628 219.688 373.876 219.592 374.172 219.592C374.468 219.592 374.712 219.688 374.904 219.88C375.104 220.064 375.204 220.296 375.204 220.576C375.204 220.856 375.104 221.092 374.904 221.284C374.712 221.468 374.468 221.56 374.172 221.56ZM375 222.352V229H373.32V222.352H375ZM379.208 223.732H378.044V229H376.34V223.732H375.584V222.352H376.34V222.016C376.34 221.2 376.572 220.6 377.036 220.216C377.5 219.832 378.2 219.652 379.136 219.676V221.092C378.728 221.084 378.444 221.152 378.284 221.296C378.124 221.44 378.044 221.7 378.044 222.076V222.352H379.208V223.732ZM383.481 222.256C384.273 222.256 384.913 222.508 385.401 223.012C385.889 223.508 386.133 224.204 386.133 225.1V229H384.453V225.328C384.453 224.8 384.321 224.396 384.057 224.116C383.793 223.828 383.433 223.684 382.977 223.684C382.513 223.684 382.145 223.828 381.873 224.116C381.609 224.396 381.477 224.8 381.477 225.328V229H379.797V222.352H381.477V223.18C381.701 222.892 381.985 222.668 382.329 222.508C382.681 222.34 383.065 222.256 383.481 222.256ZM393.506 222.352V229H391.814V228.16C391.598 228.448 391.314 228.676 390.962 228.844C390.618 229.004 390.242 229.084 389.834 229.084C389.314 229.084 388.854 228.976 388.454 228.76C388.054 228.536 387.738 228.212 387.506 227.788C387.282 227.356 387.17 226.844 387.17 226.252V222.352H388.85V226.012C388.85 226.54 388.982 226.948 389.246 227.236C389.51 227.516 389.87 227.656 390.326 227.656C390.79 227.656 391.154 227.516 391.418 227.236C391.682 226.948 391.814 226.54 391.814 226.012V222.352H393.506ZM400.94 222.352V229H399.248V228.16C399.032 228.448 398.748 228.676 398.396 228.844C398.052 229.004 397.676 229.084 397.268 229.084C396.748 229.084 396.288 228.976 395.888 228.76C395.488 228.536 395.172 228.212 394.94 227.788C394.716 227.356 394.604 226.844 394.604 226.252V222.352H396.284V226.012C396.284 226.54 396.416 226.948 396.68 227.236C396.944 227.516 397.304 227.656 397.76 227.656C398.224 227.656 398.588 227.516 398.852 227.236C399.116 226.948 399.248 226.54 399.248 226.012V222.352H400.94ZM410.354 222.256C411.17 222.256 411.826 222.508 412.322 223.012C412.826 223.508 413.078 224.204 413.078 225.1V229H411.398V225.328C411.398 224.808 411.266 224.412 411.002 224.14C410.738 223.86 410.378 223.72 409.922 223.72C409.466 223.72 409.102 223.86 408.83 224.14C408.566 224.412 408.434 224.808 408.434 225.328V229H406.754V225.328C406.754 224.808 406.622 224.412 406.358 224.14C406.094 223.86 405.734 223.72 405.278 223.72C404.814 223.72 404.446 223.86 404.174 224.14C403.91 224.412 403.778 224.808 403.778 225.328V229H402.098V222.352H403.778V223.156C403.994 222.876 404.27 222.656 404.606 222.496C404.95 222.336 405.326 222.256 405.734 222.256C406.254 222.256 406.718 222.368 407.126 222.592C407.534 222.808 407.85 223.12 408.074 223.528C408.29 223.144 408.602 222.836 409.01 222.604C409.426 222.372 409.874 222.256 410.354 222.256ZM413.74 225.652C413.74 224.98 413.872 224.384 414.136 223.864C414.408 223.344 414.772 222.944 415.228 222.664C415.692 222.384 416.208 222.244 416.776 222.244C417.272 222.244 417.704 222.344 418.072 222.544C418.448 222.744 418.748 222.996 418.972 223.3V222.352H420.664V229H418.972V228.028C418.756 228.34 418.456 228.6 418.072 228.808C417.696 229.008 417.26 229.108 416.764 229.108C416.204 229.108 415.692 228.964 415.228 228.676C414.772 228.388 414.408 227.984 414.136 227.464C413.872 226.936 413.74 226.332 413.74 225.652ZM418.972 225.676C418.972 225.268 418.892 224.92 418.732 224.632C418.572 224.336 418.356 224.112 418.084 223.96C417.812 223.8 417.52 223.72 417.208 223.72C416.896 223.72 416.608 223.796 416.344 223.948C416.08 224.1 415.864 224.324 415.696 224.62C415.536 224.908 415.456 225.252 415.456 225.652C415.456 226.052 415.536 226.404 415.696 226.708C415.864 227.004 416.08 227.232 416.344 227.392C416.616 227.552 416.904 227.632 417.208 227.632C417.52 227.632 417.812 227.556 418.084 227.404C418.356 227.244 418.572 227.02 418.732 226.732C418.892 226.436 418.972 226.084 418.972 225.676ZM423.485 223.384C423.701 223.032 423.981 222.756 424.325 222.556C424.677 222.356 425.077 222.256 425.525 222.256V224.02H425.081C424.553 224.02 424.153 224.144 423.881 224.392C423.617 224.64 423.485 225.072 423.485 225.688V229H421.805V222.352H423.485V223.384ZM426.9 229.084C426.596 229.084 426.344 228.992 426.144 228.808C425.952 228.616 425.856 228.38 425.856 228.1C425.856 227.82 425.952 227.588 426.144 227.404C426.344 227.212 426.596 227.116 426.9 227.116C427.196 227.116 427.44 227.212 427.632 227.404C427.824 227.588 427.92 227.82 427.92 228.1C427.92 228.38 427.824 228.616 427.632 228.808C427.44 228.992 427.196 229.084 426.9 229.084ZM431.545 227.452L433.225 222.352H435.013L432.553 229H430.513L428.065 222.352H429.865L431.545 227.452ZM441.637 225.532C441.637 225.772 441.621 225.988 441.589 226.18H436.729C436.769 226.66 436.937 227.036 437.233 227.308C437.529 227.58 437.893 227.716 438.325 227.716C438.949 227.716 439.393 227.448 439.657 226.912H441.469C441.277 227.552 440.909 228.08 440.365 228.496C439.821 228.904 439.153 229.108 438.361 229.108C437.721 229.108 437.145 228.968 436.633 228.688C436.129 228.4 435.733 227.996 435.445 227.476C435.165 226.956 435.025 226.356 435.025 225.676C435.025 224.988 435.165 224.384 435.445 223.864C435.725 223.344 436.117 222.944 436.621 222.664C437.125 222.384 437.705 222.244 438.361 222.244C438.993 222.244 439.557 222.38 440.053 222.652C440.557 222.924 440.945 223.312 441.217 223.816C441.497 224.312 441.637 224.884 441.637 225.532ZM439.897 225.052C439.889 224.62 439.733 224.276 439.429 224.02C439.125 223.756 438.753 223.624 438.313 223.624C437.897 223.624 437.545 223.752 437.257 224.008C436.977 224.256 436.805 224.604 436.741 225.052H439.897ZM444.043 223.384C444.259 223.032 444.539 222.756 444.883 222.556C445.235 222.356 445.635 222.256 446.083 222.256V224.02H445.639C445.111 224.02 444.711 224.144 444.439 224.392C444.175 224.64 444.043 225.072 444.043 225.688V229H442.363V222.352H444.043V223.384ZM446.283 225.676C446.283 224.988 446.423 224.388 446.703 223.876C446.983 223.356 447.371 222.956 447.867 222.676C448.363 222.388 448.931 222.244 449.571 222.244C450.395 222.244 451.075 222.452 451.611 222.868C452.155 223.276 452.519 223.852 452.703 224.596H450.891C450.795 224.308 450.631 224.084 450.399 223.924C450.175 223.756 449.895 223.672 449.559 223.672C449.079 223.672 448.699 223.848 448.419 224.2C448.139 224.544 447.999 225.036 447.999 225.676C447.999 226.308 448.139 226.8 448.419 227.152C448.699 227.496 449.079 227.668 449.559 227.668C450.239 227.668 450.683 227.364 450.891 226.756H452.703C452.519 227.476 452.155 228.048 451.611 228.472C451.067 228.896 450.387 229.108 449.571 229.108C448.931 229.108 448.363 228.968 447.867 228.688C447.371 228.4 446.983 228 446.703 227.488C446.423 226.968 446.283 226.364 446.283 225.676ZM459.613 225.532C459.613 225.772 459.597 225.988 459.565 226.18H454.705C454.745 226.66 454.913 227.036 455.209 227.308C455.505 227.58 455.869 227.716 456.301 227.716C456.925 227.716 457.369 227.448 457.633 226.912H459.445C459.253 227.552 458.885 228.08 458.341 228.496C457.797 228.904 457.129 229.108 456.337 229.108C455.697 229.108 455.121 228.968 454.609 228.688C454.105 228.4 453.709 227.996 453.421 227.476C453.141 226.956 453.001 226.356 453.001 225.676C453.001 224.988 453.141 224.384 453.421 223.864C453.701 223.344 454.093 222.944 454.597 222.664C455.101 222.384 455.681 222.244 456.337 222.244C456.969 222.244 457.533 222.38 458.029 222.652C458.533 222.924 458.921 223.312 459.193 223.816C459.473 224.312 459.613 224.884 459.613 225.532ZM457.873 225.052C457.865 224.62 457.709 224.276 457.405 224.02C457.101 223.756 456.729 223.624 456.289 223.624C455.873 223.624 455.521 223.752 455.233 224.008C454.953 224.256 454.781 224.604 454.717 225.052H457.873ZM462.02 220.12V229H460.34V220.12H462.02ZM463.924 229.084C463.62 229.084 463.368 228.992 463.168 228.808C462.976 228.616 462.88 228.38 462.88 228.1C462.88 227.82 462.976 227.588 463.168 227.404C463.368 227.212 463.62 227.116 463.924 227.116C464.22 227.116 464.464 227.212 464.656 227.404C464.848 227.588 464.944 227.82 464.944 228.1C464.944 228.38 464.848 228.616 464.656 228.808C464.464 228.992 464.22 229.084 463.924 229.084ZM465.365 225.652C465.365 224.98 465.497 224.384 465.761 223.864C466.033 223.344 466.397 222.944 466.853 222.664C467.317 222.384 467.833 222.244 468.401 222.244C468.897 222.244 469.329 222.344 469.697 222.544C470.073 222.744 470.373 222.996 470.597 223.3V222.352H472.289V229H470.597V228.028C470.381 228.34 470.081 228.6 469.697 228.808C469.321 229.008 468.885 229.108 468.389 229.108C467.829 229.108 467.317 228.964 466.853 228.676C466.397 228.388 466.033 227.984 465.761 227.464C465.497 226.936 465.365 226.332 465.365 225.652ZM470.597 225.676C470.597 225.268 470.517 224.92 470.357 224.632C470.197 224.336 469.981 224.112 469.709 223.96C469.437 223.8 469.145 223.72 468.833 223.72C468.521 223.72 468.233 223.796 467.969 223.948C467.705 224.1 467.489 224.324 467.321 224.62C467.161 224.908 467.081 225.252 467.081 225.652C467.081 226.052 467.161 226.404 467.321 226.708C467.489 227.004 467.705 227.232 467.969 227.392C468.241 227.552 468.529 227.632 468.833 227.632C469.145 227.632 469.437 227.556 469.709 227.404C469.981 227.244 470.197 227.02 470.357 226.732C470.517 226.436 470.597 226.084 470.597 225.676ZM475.11 223.312C475.326 223.008 475.622 222.756 475.998 222.556C476.382 222.348 476.818 222.244 477.306 222.244C477.874 222.244 478.386 222.384 478.842 222.664C479.306 222.944 479.67 223.344 479.934 223.864C480.206 224.376 480.342 224.972 480.342 225.652C480.342 226.332 480.206 226.936 479.934 227.464C479.67 227.984 479.306 228.388 478.842 228.676C478.386 228.964 477.874 229.108 477.306 229.108C476.818 229.108 476.386 229.008 476.01 228.808C475.642 228.608 475.342 228.356 475.11 228.052V232.168H473.43V222.352H475.11V223.312ZM478.626 225.652C478.626 225.252 478.542 224.908 478.374 224.62C478.214 224.324 477.998 224.1 477.726 223.948C477.462 223.796 477.174 223.72 476.862 223.72C476.558 223.72 476.27 223.8 475.998 223.96C475.734 224.112 475.518 224.336 475.35 224.632C475.19 224.928 475.11 225.276 475.11 225.676C475.11 226.076 475.19 226.424 475.35 226.72C475.518 227.016 475.734 227.244 475.998 227.404C476.27 227.556 476.558 227.632 476.862 227.632C477.174 227.632 477.462 227.552 477.726 227.392C477.998 227.232 478.214 227.004 478.374 226.708C478.542 226.412 478.626 226.06 478.626 225.652ZM482.742 223.312C482.958 223.008 483.254 222.756 483.63 222.556C484.014 222.348 484.45 222.244 484.938 222.244C485.506 222.244 486.018 222.384 486.474 222.664C486.938 222.944 487.302 223.344 487.566 223.864C487.838 224.376 487.974 224.972 487.974 225.652C487.974 226.332 487.838 226.936 487.566 227.464C487.302 227.984 486.938 228.388 486.474 228.676C486.018 228.964 485.506 229.108 484.938 229.108C484.45 229.108 484.018 229.008 483.642 228.808C483.274 228.608 482.974 228.356 482.742 228.052V232.168H481.062V222.352H482.742V223.312ZM486.258 225.652C486.258 225.252 486.174 224.908 486.006 224.62C485.846 224.324 485.63 224.1 485.358 223.948C485.094 223.796 484.806 223.72 484.494 223.72C484.19 223.72 483.902 223.8 483.63 223.96C483.366 224.112 483.15 224.336 482.982 224.632C482.822 224.928 482.742 225.276 482.742 225.676C482.742 226.076 482.822 226.424 482.982 226.72C483.15 227.016 483.366 227.244 483.63 227.404C483.902 227.556 484.19 227.632 484.494 227.632C484.806 227.632 485.094 227.552 485.358 227.392C485.63 227.232 485.846 227.004 486.006 226.708C486.174 226.412 486.258 226.06 486.258 225.652Z" fill="white"/>
<path d="M32.016 54.336H37.536V57H28.656V40.248H32.016V54.336ZM38.3076 50.304C38.3076 48.96 38.5716 47.768 39.0996 46.728C39.6436 45.688 40.3716 44.888 41.2836 44.328C42.2116 43.768 43.2436 43.488 44.3796 43.488C45.3716 43.488 46.2356 43.688 46.9716 44.088C47.7236 44.488 48.3236 44.992 48.7716 45.6V43.704H52.1556V57H48.7716V55.056C48.3396 55.68 47.7396 56.2 46.9716 56.616C46.2196 57.016 45.3476 57.216 44.3556 57.216C43.2356 57.216 42.2116 56.928 41.2836 56.352C40.3716 55.776 39.6436 54.968 39.0996 53.928C38.5716 52.872 38.3076 51.664 38.3076 50.304ZM48.7716 50.352C48.7716 49.536 48.6116 48.84 48.2916 48.264C47.9716 47.672 47.5396 47.224 46.9956 46.92C46.4516 46.6 45.8676 46.44 45.2436 46.44C44.6196 46.44 44.0436 46.592 43.5156 46.896C42.9876 47.2 42.5556 47.648 42.2196 48.24C41.8996 48.816 41.7396 49.504 41.7396 50.304C41.7396 51.104 41.8996 51.808 42.2196 52.416C42.5556 53.008 42.9876 53.464 43.5156 53.784C44.0596 54.104 44.6356 54.264 45.2436 54.264C45.8676 54.264 46.4516 54.112 46.9956 53.808C47.5396 53.488 47.9716 53.04 48.2916 52.464C48.6116 51.872 48.7716 51.168 48.7716 50.352ZM58.2973 45.768C58.7293 45.064 59.2893 44.512 59.9773 44.112C60.6813 43.712 61.4813 43.512 62.3773 43.512V47.04H61.4893C60.4333 47.04 59.6333 47.288 59.0893 47.784C58.5613 48.28 58.2973 49.144 58.2973 50.376V57H54.9373V43.704H58.2973V45.768ZM63.2764 50.304C63.2764 48.96 63.5404 47.768 64.0684 46.728C64.6124 45.688 65.3404 44.888 66.2524 44.328C67.1804 43.768 68.2124 43.488 69.3484 43.488C70.3404 43.488 71.2044 43.688 71.9404 44.088C72.6924 44.488 73.2924 44.992 73.7404 45.6V43.704H77.1244V57H73.7404V55.056C73.3084 55.68 72.7084 56.2 71.9404 56.616C71.1884 57.016 70.3164 57.216 69.3244 57.216C68.2044 57.216 67.1804 56.928 66.2524 56.352C65.3404 55.776 64.6124 54.968 64.0684 53.928C63.5404 52.872 63.2764 51.664 63.2764 50.304ZM73.7404 50.352C73.7404 49.536 73.5804 48.84 73.2604 48.264C72.9404 47.672 72.5084 47.224 71.9644 46.92C71.4204 46.6 70.8364 46.44 70.2124 46.44C69.5884 46.44 69.0124 46.592 68.4844 46.896C67.9564 47.2 67.5244 47.648 67.1884 48.24C66.8684 48.816 66.7084 49.504 66.7084 50.304C66.7084 51.104 66.8684 51.808 67.1884 52.416C67.5244 53.008 67.9564 53.464 68.4844 53.784C69.0284 54.104 69.6044 54.264 70.2124 54.264C70.8364 54.264 71.4204 54.112 71.9644 53.808C72.5084 53.488 72.9404 53.04 73.2604 52.464C73.5804 51.872 73.7404 51.168 73.7404 50.352ZM85.45 53.904L88.81 43.704H92.386L87.466 57H83.386L78.49 43.704H82.09L85.45 53.904ZM106.133 50.064C106.133 50.544 106.101 50.976 106.037 51.36H96.3172C96.3972 52.32 96.7332 53.072 97.3252 53.616C97.9172 54.16 98.6452 54.432 99.5092 54.432C100.757 54.432 101.645 53.896 102.173 52.824H105.797C105.413 54.104 104.677 55.16 103.589 55.992C102.501 56.808 101.165 57.216 99.5812 57.216C98.3012 57.216 97.1492 56.936 96.1252 56.376C95.1172 55.8 94.3252 54.992 93.7492 53.952C93.1892 52.912 92.9092 51.712 92.9092 50.352C92.9092 48.976 93.1892 47.768 93.7492 46.728C94.3092 45.688 95.0932 44.888 96.1012 44.328C97.1092 43.768 98.2692 43.488 99.5812 43.488C100.845 43.488 101.973 43.76 102.965 44.304C103.973 44.848 104.749 45.624 105.293 46.632C105.853 47.624 106.133 48.768 106.133 50.064ZM102.653 49.104C102.637 48.24 102.325 47.552 101.717 47.04C101.109 46.512 100.365 46.248 99.4852 46.248C98.6532 46.248 97.9492 46.504 97.3732 47.016C96.8132 47.512 96.4692 48.208 96.3412 49.104H102.653ZM111.446 39.24V57H108.086V39.24H111.446ZM128.124 57L124.428 50.472H122.844V57H119.484V40.248H125.772C127.068 40.248 128.172 40.48 129.084 40.944C129.996 41.392 130.676 42.008 131.124 42.792C131.588 43.56 131.82 44.424 131.82 45.384C131.82 46.488 131.5 47.488 130.86 48.384C130.22 49.264 129.268 49.872 128.004 50.208L132.012 57H128.124ZM122.844 47.952H125.652C126.564 47.952 127.244 47.736 127.692 47.304C128.14 46.856 128.364 46.24 128.364 45.456C128.364 44.688 128.14 44.096 127.692 43.68C127.244 43.248 126.564 43.032 125.652 43.032H122.844V47.952ZM146.719 50.064C146.719 50.544 146.687 50.976 146.623 51.36H136.903C136.983 52.32 137.319 53.072 137.911 53.616C138.503 54.16 139.231 54.432 140.095 54.432C141.343 54.432 142.231 53.896 142.759 52.824H146.383C145.999 54.104 145.263 55.16 144.175 55.992C143.087 56.808 141.751 57.216 140.167 57.216C138.887 57.216 137.735 56.936 136.711 56.376C135.703 55.8 134.911 54.992 134.335 53.952C133.775 52.912 133.495 51.712 133.495 50.352C133.495 48.976 133.775 47.768 134.335 46.728C134.895 45.688 135.679 44.888 136.687 44.328C137.695 43.768 138.855 43.488 140.167 43.488C141.431 43.488 142.559 43.76 143.551 44.304C144.559 44.848 145.335 45.624 145.879 46.632C146.439 47.624 146.719 48.768 146.719 50.064ZM143.239 49.104C143.223 48.24 142.911 47.552 142.303 47.04C141.695 46.512 140.951 46.248 140.071 46.248C139.239 46.248 138.535 46.504 137.959 47.016C137.399 47.512 137.055 48.208 136.927 49.104H143.239ZM153.76 57.216C152.672 57.216 151.696 57.024 150.832 56.64C149.968 56.24 149.28 55.704 148.768 55.032C148.272 54.36 148 53.616 147.952 52.8H151.336C151.4 53.312 151.648 53.736 152.08 54.072C152.528 54.408 153.08 54.576 153.736 54.576C154.376 54.576 154.872 54.448 155.224 54.192C155.592 53.936 155.776 53.608 155.776 53.208C155.776 52.776 155.552 52.456 155.104 52.248C154.672 52.024 153.976 51.784 153.016 51.528C152.024 51.288 151.208 51.04 150.568 50.784C149.944 50.528 149.4 50.136 148.936 49.608C148.488 49.08 148.264 48.368 148.264 47.472C148.264 46.736 148.472 46.064 148.888 45.456C149.32 44.848 149.928 44.368 150.712 44.016C151.512 43.664 152.448 43.488 153.52 43.488C155.104 43.488 156.368 43.888 157.312 44.688C158.256 45.472 158.776 46.536 158.872 47.88H155.656C155.608 47.352 155.384 46.936 154.984 46.632C154.6 46.312 154.08 46.152 153.424 46.152C152.816 46.152 152.344 46.264 152.008 46.488C151.688 46.712 151.528 47.024 151.528 47.424C151.528 47.872 151.752 48.216 152.2 48.456C152.648 48.68 153.344 48.912 154.288 49.152C155.248 49.392 156.04 49.64 156.664 49.896C157.288 50.152 157.824 50.552 158.272 51.096C158.736 51.624 158.976 52.328 158.992 53.208C158.992 53.976 158.776 54.664 158.344 55.272C157.928 55.88 157.32 56.36 156.52 56.712C155.736 57.048 154.816 57.216 153.76 57.216ZM165.162 46.464V52.896C165.162 53.344 165.266 53.672 165.474 53.88C165.698 54.072 166.066 54.168 166.578 54.168H168.138V57H166.026C163.194 57 161.778 55.624 161.778 52.872V46.464H160.194V43.704H161.778V40.416H165.162V43.704H168.138V46.464H165.162ZM185.545 53.808H178.873L177.769 57H174.241L180.265 40.224H184.177L190.201 57H186.649L185.545 53.808ZM184.633 51.12L182.209 44.112L179.785 51.12H184.633ZM204.169 45.432C204.169 46.328 203.953 47.168 203.521 47.952C203.105 48.736 202.441 49.368 201.529 49.848C200.633 50.328 199.497 50.568 198.121 50.568H195.313V57H191.953V40.248H198.121C199.417 40.248 200.521 40.472 201.433 40.92C202.345 41.368 203.025 41.984 203.473 42.768C203.937 43.552 204.169 44.44 204.169 45.432ZM197.977 47.856C198.905 47.856 199.593 47.648 200.041 47.232C200.489 46.8 200.713 46.2 200.713 45.432C200.713 43.8 199.801 42.984 197.977 42.984H195.313V47.856H197.977ZM209.414 40.248V57H206.054V40.248H209.414Z" fill="#212529"/>
<path d="M29.508 77.668H32.268V79H27.828V70.624H29.508V77.668ZM32.4038 75.652C32.4038 74.98 32.5358 74.384 32.7998 73.864C33.0718 73.344 33.4358 72.944 33.8918 72.664C34.3558 72.384 34.8718 72.244 35.4398 72.244C35.9358 72.244 36.3678 72.344 36.7358 72.544C37.1118 72.744 37.4118 72.996 37.6358 73.3V72.352H39.3278V79H37.6358V78.028C37.4198 78.34 37.1198 78.6 36.7358 78.808C36.3598 79.008 35.9238 79.108 35.4278 79.108C34.8678 79.108 34.3558 78.964 33.8918 78.676C33.4358 78.388 33.0718 77.984 32.7998 77.464C32.5358 76.936 32.4038 76.332 32.4038 75.652ZM37.6358 75.676C37.6358 75.268 37.5558 74.92 37.3958 74.632C37.2358 74.336 37.0198 74.112 36.7478 73.96C36.4758 73.8 36.1838 73.72 35.8718 73.72C35.5598 73.72 35.2718 73.796 35.0078 73.948C34.7438 74.1 34.5278 74.324 34.3598 74.62C34.1998 74.908 34.1198 75.252 34.1198 75.652C34.1198 76.052 34.1998 76.404 34.3598 76.708C34.5278 77.004 34.7438 77.232 35.0078 77.392C35.2798 77.552 35.5678 77.632 35.8718 77.632C36.1838 77.632 36.4758 77.556 36.7478 77.404C37.0198 77.244 37.2358 77.02 37.3958 76.732C37.5558 76.436 37.6358 76.084 37.6358 75.676ZM42.1486 73.384C42.3646 73.032 42.6446 72.756 42.9886 72.556C43.3406 72.356 43.7406 72.256 44.1886 72.256V74.02H43.7446C43.2166 74.02 42.8166 74.144 42.5446 74.392C42.2806 74.64 42.1486 75.072 42.1486 75.688V79H40.4686V72.352H42.1486V73.384ZM44.3882 75.652C44.3882 74.98 44.5202 74.384 44.7842 73.864C45.0562 73.344 45.4202 72.944 45.8762 72.664C46.3402 72.384 46.8562 72.244 47.4242 72.244C47.9202 72.244 48.3522 72.344 48.7202 72.544C49.0962 72.744 49.3962 72.996 49.6202 73.3V72.352H51.3122V79H49.6202V78.028C49.4042 78.34 49.1042 78.6 48.7202 78.808C48.3442 79.008 47.9082 79.108 47.4122 79.108C46.8522 79.108 46.3402 78.964 45.8762 78.676C45.4202 78.388 45.0562 77.984 44.7842 77.464C44.5202 76.936 44.3882 76.332 44.3882 75.652ZM49.6202 75.676C49.6202 75.268 49.5402 74.92 49.3802 74.632C49.2202 74.336 49.0042 74.112 48.7322 73.96C48.4602 73.8 48.1682 73.72 47.8562 73.72C47.5442 73.72 47.2562 73.796 46.9922 73.948C46.7282 74.1 46.5122 74.324 46.3442 74.62C46.1842 74.908 46.1042 75.252 46.1042 75.652C46.1042 76.052 46.1842 76.404 46.3442 76.708C46.5122 77.004 46.7282 77.232 46.9922 77.392C47.2642 77.552 47.5522 77.632 47.8562 77.632C48.1682 77.632 48.4602 77.556 48.7322 77.404C49.0042 77.244 49.2202 77.02 49.3802 76.732C49.5402 76.436 49.6202 76.084 49.6202 75.676ZM55.225 77.452L56.905 72.352H58.693L56.233 79H54.193L51.745 72.352H53.545L55.225 77.452ZM65.3166 75.532C65.3166 75.772 65.3006 75.988 65.2686 76.18H60.4086C60.4486 76.66 60.6166 77.036 60.9126 77.308C61.2086 77.58 61.5726 77.716 62.0046 77.716C62.6286 77.716 63.0726 77.448 63.3366 76.912H65.1486C64.9566 77.552 64.5886 78.08 64.0446 78.496C63.5006 78.904 62.8326 79.108 62.0406 79.108C61.4006 79.108 60.8246 78.968 60.3126 78.688C59.8086 78.4 59.4126 77.996 59.1246 77.476C58.8446 76.956 58.7046 76.356 58.7046 75.676C58.7046 74.988 58.8446 74.384 59.1246 73.864C59.4046 73.344 59.7966 72.944 60.3006 72.664C60.8046 72.384 61.3846 72.244 62.0406 72.244C62.6726 72.244 63.2366 72.38 63.7326 72.652C64.2366 72.924 64.6246 73.312 64.8966 73.816C65.1766 74.312 65.3166 74.884 65.3166 75.532ZM63.5766 75.052C63.5686 74.62 63.4126 74.276 63.1086 74.02C62.8046 73.756 62.4326 73.624 61.9926 73.624C61.5766 73.624 61.2246 73.752 60.9366 74.008C60.6566 74.256 60.4846 74.604 60.4206 75.052H63.5766ZM67.7228 70.12V79H66.0428V70.12H67.7228ZM70.8461 71.8V70.252H73.7381V79H72.0101V71.8H70.8461ZM75.4257 77.104C76.1937 76.464 76.8057 75.932 77.2617 75.508C77.7177 75.076 78.0977 74.628 78.4017 74.164C78.7057 73.7 78.8577 73.244 78.8577 72.796C78.8577 72.388 78.7617 72.068 78.5697 71.836C78.3777 71.604 78.0817 71.488 77.6817 71.488C77.2817 71.488 76.9737 71.624 76.7577 71.896C76.5417 72.16 76.4297 72.524 76.4217 72.988H74.7897C74.8217 72.028 75.1057 71.3 75.6417 70.804C76.1857 70.308 76.8737 70.06 77.7057 70.06C78.6177 70.06 79.3177 70.304 79.8057 70.792C80.2937 71.272 80.5377 71.908 80.5377 72.7C80.5377 73.324 80.3697 73.92 80.0337 74.488C79.6977 75.056 79.3137 75.552 78.8817 75.976C78.4497 76.392 77.8857 76.896 77.1897 77.488H80.7297V78.88H74.8017V77.632L75.4257 77.104Z" fill="white"/>
<defs>
<linearGradient id="paint0_linear_366_281" x1="0" y1="130" x2="520" y2="130" gradientUnits="userSpaceOnUse">
<stop stop-color="#FF2D20"/>
<stop offset="0.0001" stop-color="#CC241A"/>
<stop offset="0.725962" stop-color="#991B13"/>
</linearGradient>
</defs>
</svg>
