<svg width="520" height="260" viewBox="0 0 520 260" fill="none" xmlns="http://www.w3.org/2000/svg">
<rect width="520" height="260" fill="url(#paint0_linear_366_281)"/>
<path d="M402.863 66.5562C402.953 66.8892 403 67.2326 403 67.5779V121.24C403 122.642 402.25 123.936 401.032 124.634L355.966 150.566V201.962C355.966 202.65 355.785 203.326 355.442 203.921C355.098 204.517 354.604 205.012 354.009 205.358L259.934 259.479C259.718 259.601 259.484 259.679 259.248 259.763C259.16 259.791 259.078 259.846 258.985 259.87C258.327 260.043 257.636 260.043 256.978 259.87C256.87 259.842 256.772 259.782 256.669 259.743C256.454 259.664 256.229 259.596 256.024 259.479L161.968 205.357C161.37 205.014 160.874 204.519 160.528 203.923C160.183 203.328 160.001 202.651 160 201.962V40.9776C160 40.6247 160.049 40.2822 160.137 39.9502C160.166 39.8373 160.234 39.7349 160.274 39.622C160.347 39.4171 160.417 39.2065 160.524 39.0158C160.597 38.8887 160.704 38.7862 160.793 38.6686C160.906 38.5121 161.008 38.3508 161.14 38.2133C161.253 38.1013 161.4 38.0179 161.527 37.9202C161.67 37.8025 161.796 37.6754 161.957 37.5824H161.962L208.992 10.5221C209.588 10.18 210.263 10 210.95 10C211.637 10 212.312 10.18 212.908 10.5221L259.938 37.5824H259.947C260.104 37.6811 260.237 37.8025 260.378 37.9154C260.505 38.0131 260.648 38.1013 260.76 38.2095C260.897 38.3508 260.995 38.513 261.112 38.6686C261.195 38.7862 261.308 38.8887 261.377 39.0158C261.489 39.2112 261.552 39.4171 261.631 39.6229C261.67 39.7349 261.738 39.8373 261.768 39.955C261.858 40.2879 261.904 40.6323 261.905 40.9776V141.526L301.095 118.974V67.5731C301.095 67.2316 301.144 66.8835 301.232 66.5562C301.267 66.4386 301.33 66.3361 301.369 66.2242C301.448 66.0183 301.516 65.8068 301.623 65.6171C301.697 65.49 301.804 65.3875 301.888 65.2699C302.005 65.1134 302.103 64.9521 302.239 64.8145C302.353 64.7026 302.495 64.6191 302.622 64.5214C302.769 64.4038 302.896 64.2767 303.053 64.1837H303.058L350.092 37.1233C350.688 36.7803 351.363 36.5998 352.05 36.5998C352.737 36.5998 353.413 36.7803 354.008 37.1233L401.038 64.1837C401.204 64.2814 401.331 64.4038 401.478 64.5157C401.6 64.6144 401.742 64.7026 401.855 64.8098C401.992 64.9521 402.09 65.1134 402.206 65.2699C402.296 65.3875 402.403 65.49 402.472 65.6171C402.584 65.8068 402.648 66.0183 402.726 66.2242C402.77 66.3361 402.834 66.4386 402.863 66.5562ZM395.16 118.975V74.352L378.702 83.8202L355.965 96.9036V141.527L395.165 118.975H395.16ZM348.13 199.698V155.044L325.765 167.809L261.901 204.236V249.309L348.13 199.698ZM167.84 47.7507V199.698L254.06 249.305V204.241L209.018 178.765L209.003 178.755L208.984 178.746C208.833 178.658 208.704 178.531 208.563 178.423C208.44 178.325 208.298 178.247 208.191 178.139L208.181 178.125C208.054 178.002 207.966 177.85 207.859 177.714C207.76 177.581 207.643 177.469 207.564 177.332L207.56 177.317C207.471 177.171 207.417 176.995 207.354 176.829C207.29 176.682 207.207 176.544 207.168 176.389V176.384C207.119 176.198 207.11 176.002 207.09 175.811C207.071 175.665 207.031 175.518 207.031 175.371V70.3033L184.298 57.2142L167.84 47.7564V47.7507ZM210.955 18.4355L171.769 40.9776L210.946 63.5187L250.125 40.9719L210.946 18.4355H210.955ZM231.333 159.114L254.065 146.036V47.7507L237.608 57.2199L214.87 70.3023V168.587L231.333 159.114ZM352.05 45.0367L312.87 67.5779L352.05 90.12L391.225 67.5731L352.05 45.0367ZM348.129 96.9036L325.393 83.8202L308.935 74.352V118.975L331.667 132.054L348.13 141.527L348.129 96.9036ZM257.976 197.463L315.444 164.675L344.171 148.29L305.02 125.763L259.942 151.699L218.858 175.337L257.976 197.463Z" fill="#FF2D20" fill-opacity="0.2"/>
<rect x="331" y="213" width="174" height="24" rx="12" fill="#212529"/>
<path d="M351.044 222.352L349.1 229H347.288L346.076 224.356L344.864 229H343.04L341.084 222.352H342.788L343.964 227.416L345.236 222.352H347.012L348.26 227.404L349.436 222.352H351.044ZM360.669 222.352L358.725 229H356.913L355.701 224.356L354.489 229H352.665L350.709 222.352H352.413L353.589 227.416L354.861 222.352H356.637L357.885 227.404L359.061 222.352H360.669ZM370.294 222.352L368.35 229H366.538L365.326 224.356L364.114 229H362.29L360.334 222.352H362.038L363.214 227.416L364.486 222.352H366.262L367.51 227.404L368.686 222.352H370.294ZM371.447 229.084C371.143 229.084 370.891 228.992 370.691 228.808C370.499 228.616 370.403 228.38 370.403 228.1C370.403 227.82 370.499 227.588 370.691 227.404C370.891 227.212 371.143 227.116 371.447 227.116C371.743 227.116 371.987 227.212 372.179 227.404C372.371 227.588 372.467 227.82 372.467 228.1C372.467 228.38 372.371 228.616 372.179 228.808C371.987 228.992 371.743 229.084 371.447 229.084ZM374.172 221.56C373.876 221.56 373.628 221.468 373.428 221.284C373.236 221.092 373.14 220.856 373.14 220.576C373.14 220.296 373.236 220.064 373.428 219.88C373.628 219.688 373.876 219.592 374.172 219.592C374.468 219.592 374.712 219.688 374.904 219.88C375.104 220.064 375.204 220.296 375.204 220.576C375.204 220.856 375.104 221.092 374.904 221.284C374.712 221.468 374.468 221.56 374.172 221.56ZM375 222.352V229H373.32V222.352H375ZM379.208 223.732H378.044V229H376.34V223.732H375.584V222.352H376.34V222.016C376.34 221.2 376.572 220.6 377.036 220.216C377.5 219.832 378.2 219.652 379.136 219.676V221.092C378.728 221.084 378.444 221.152 378.284 221.296C378.124 221.44 378.044 221.7 378.044 222.076V222.352H379.208V223.732ZM383.481 222.256C384.273 222.256 384.913 222.508 385.401 223.012C385.889 223.508 386.133 224.204 386.133 225.1V229H384.453V225.328C384.453 224.8 384.321 224.396 384.057 224.116C383.793 223.828 383.433 223.684 382.977 223.684C382.513 223.684 382.145 223.828 381.873 224.116C381.609 224.396 381.477 224.8 381.477 225.328V229H379.797V222.352H381.477V223.18C381.701 222.892 381.985 222.668 382.329 222.508C382.681 222.34 383.065 222.256 383.481 222.256ZM393.506 222.352V229H391.814V228.16C391.598 228.448 391.314 228.676 390.962 228.844C390.618 229.004 390.242 229.084 389.834 229.084C389.314 229.084 388.854 228.976 388.454 228.76C388.054 228.536 387.738 228.212 387.506 227.788C387.282 227.356 387.17 226.844 387.17 226.252V222.352H388.85V226.012C388.85 226.54 388.982 226.948 389.246 227.236C389.51 227.516 389.87 227.656 390.326 227.656C390.79 227.656 391.154 227.516 391.418 227.236C391.682 226.948 391.814 226.54 391.814 226.012V222.352H393.506ZM399.776 224.008V225.424H394.688V224.008H399.776ZM407.436 222.352V229H405.744V228.16C405.528 228.448 405.244 228.676 404.892 228.844C404.548 229.004 404.172 229.084 403.764 229.084C403.244 229.084 402.784 228.976 402.384 228.76C401.984 228.536 401.668 228.212 401.436 227.788C401.212 227.356 401.1 226.844 401.1 226.252V222.352H402.78V226.012C402.78 226.54 402.912 226.948 403.176 227.236C403.44 227.516 403.8 227.656 404.256 227.656C404.72 227.656 405.084 227.516 405.348 227.236C405.612 226.948 405.744 226.54 405.744 226.012V222.352H407.436ZM416.85 222.256C417.666 222.256 418.322 222.508 418.818 223.012C419.322 223.508 419.574 224.204 419.574 225.1V229H417.894V225.328C417.894 224.808 417.762 224.412 417.498 224.14C417.234 223.86 416.874 223.72 416.418 223.72C415.962 223.72 415.598 223.86 415.326 224.14C415.062 224.412 414.93 224.808 414.93 225.328V229H413.25V225.328C413.25 224.808 413.118 224.412 412.854 224.14C412.59 223.86 412.23 223.72 411.774 223.72C411.31 223.72 410.942 223.86 410.67 224.14C410.406 224.412 410.274 224.808 410.274 225.328V229H408.594V222.352H410.274V223.156C410.49 222.876 410.766 222.656 411.102 222.496C411.446 222.336 411.822 222.256 412.23 222.256C412.75 222.256 413.214 222.368 413.622 222.592C414.03 222.808 414.346 223.12 414.57 223.528C414.786 223.144 415.098 222.836 415.506 222.604C415.922 222.372 416.37 222.256 416.85 222.256ZM420.236 225.652C420.236 224.98 420.368 224.384 420.632 223.864C420.904 223.344 421.268 222.944 421.724 222.664C422.188 222.384 422.704 222.244 423.272 222.244C423.768 222.244 424.2 222.344 424.568 222.544C424.944 222.744 425.244 222.996 425.468 223.3V222.352H427.16V229H425.468V228.028C425.252 228.34 424.952 228.6 424.568 228.808C424.192 229.008 423.756 229.108 423.26 229.108C422.7 229.108 422.188 228.964 421.724 228.676C421.268 228.388 420.904 227.984 420.632 227.464C420.368 226.936 420.236 226.332 420.236 225.652ZM425.468 225.676C425.468 225.268 425.388 224.92 425.228 224.632C425.068 224.336 424.852 224.112 424.58 223.96C424.308 223.8 424.016 223.72 423.704 223.72C423.392 223.72 423.104 223.796 422.84 223.948C422.576 224.1 422.36 224.324 422.192 224.62C422.032 224.908 421.952 225.252 421.952 225.652C421.952 226.052 422.032 226.404 422.192 226.708C422.36 227.004 422.576 227.232 422.84 227.392C423.112 227.552 423.4 227.632 423.704 227.632C424.016 227.632 424.308 227.556 424.58 227.404C424.852 227.244 425.068 227.02 425.228 226.732C425.388 226.436 425.468 226.084 425.468 225.676ZM429.981 223.384C430.197 223.032 430.477 222.756 430.821 222.556C431.173 222.356 431.573 222.256 432.021 222.256V224.02H431.577C431.049 224.02 430.649 224.144 430.377 224.392C430.113 224.64 429.981 225.072 429.981 225.688V229H428.301V222.352H429.981V223.384ZM433.396 229.084C433.092 229.084 432.84 228.992 432.64 228.808C432.448 228.616 432.352 228.38 432.352 228.1C432.352 227.82 432.448 227.588 432.64 227.404C432.84 227.212 433.092 227.116 433.396 227.116C433.692 227.116 433.936 227.212 434.128 227.404C434.32 227.588 434.416 227.82 434.416 228.1C434.416 228.38 434.32 228.616 434.128 228.808C433.936 228.992 433.692 229.084 433.396 229.084ZM438.041 227.452L439.721 222.352H441.509L439.049 229H437.009L434.561 222.352H436.361L438.041 227.452ZM448.133 225.532C448.133 225.772 448.117 225.988 448.085 226.18H443.225C443.265 226.66 443.433 227.036 443.729 227.308C444.025 227.58 444.389 227.716 444.821 227.716C445.445 227.716 445.889 227.448 446.153 226.912H447.965C447.773 227.552 447.405 228.08 446.861 228.496C446.317 228.904 445.649 229.108 444.857 229.108C444.217 229.108 443.641 228.968 443.129 228.688C442.625 228.4 442.229 227.996 441.941 227.476C441.661 226.956 441.521 226.356 441.521 225.676C441.521 224.988 441.661 224.384 441.941 223.864C442.221 223.344 442.613 222.944 443.117 222.664C443.621 222.384 444.201 222.244 444.857 222.244C445.489 222.244 446.053 222.38 446.549 222.652C447.053 222.924 447.441 223.312 447.713 223.816C447.993 224.312 448.133 224.884 448.133 225.532ZM446.393 225.052C446.385 224.62 446.229 224.276 445.925 224.02C445.621 223.756 445.249 223.624 444.809 223.624C444.393 223.624 444.041 223.752 443.753 224.008C443.473 224.256 443.301 224.604 443.237 225.052H446.393ZM450.539 223.384C450.755 223.032 451.035 222.756 451.379 222.556C451.731 222.356 452.131 222.256 452.579 222.256V224.02H452.135C451.607 224.02 451.207 224.144 450.935 224.392C450.671 224.64 450.539 225.072 450.539 225.688V229H448.859V222.352H450.539V223.384ZM452.779 225.676C452.779 224.988 452.919 224.388 453.199 223.876C453.479 223.356 453.867 222.956 454.363 222.676C454.859 222.388 455.427 222.244 456.067 222.244C456.891 222.244 457.571 222.452 458.107 222.868C458.651 223.276 459.015 223.852 459.199 224.596H457.387C457.291 224.308 457.127 224.084 456.895 223.924C456.671 223.756 456.391 223.672 456.055 223.672C455.575 223.672 455.195 223.848 454.915 224.2C454.635 224.544 454.495 225.036 454.495 225.676C454.495 226.308 454.635 226.8 454.915 227.152C455.195 227.496 455.575 227.668 456.055 227.668C456.735 227.668 457.179 227.364 457.387 226.756H459.199C459.015 227.476 458.651 228.048 458.107 228.472C457.563 228.896 456.883 229.108 456.067 229.108C455.427 229.108 454.859 228.968 454.363 228.688C453.867 228.4 453.479 228 453.199 227.488C452.919 226.968 452.779 226.364 452.779 225.676ZM466.11 225.532C466.11 225.772 466.094 225.988 466.062 226.18H461.202C461.242 226.66 461.41 227.036 461.706 227.308C462.002 227.58 462.366 227.716 462.798 227.716C463.422 227.716 463.866 227.448 464.13 226.912H465.942C465.75 227.552 465.382 228.08 464.838 228.496C464.294 228.904 463.626 229.108 462.834 229.108C462.194 229.108 461.618 228.968 461.106 228.688C460.602 228.4 460.206 227.996 459.918 227.476C459.638 226.956 459.498 226.356 459.498 225.676C459.498 224.988 459.638 224.384 459.918 223.864C460.198 223.344 460.59 222.944 461.094 222.664C461.598 222.384 462.178 222.244 462.834 222.244C463.466 222.244 464.03 222.38 464.526 222.652C465.03 222.924 465.418 223.312 465.69 223.816C465.97 224.312 466.11 224.884 466.11 225.532ZM464.37 225.052C464.362 224.62 464.206 224.276 463.902 224.02C463.598 223.756 463.226 223.624 462.786 223.624C462.37 223.624 462.018 223.752 461.73 224.008C461.45 224.256 461.278 224.604 461.214 225.052H464.37ZM468.516 220.12V229H466.836V220.12H468.516ZM470.42 229.084C470.116 229.084 469.864 228.992 469.664 228.808C469.472 228.616 469.376 228.38 469.376 228.1C469.376 227.82 469.472 227.588 469.664 227.404C469.864 227.212 470.116 227.116 470.42 227.116C470.716 227.116 470.96 227.212 471.152 227.404C471.344 227.588 471.44 227.82 471.44 228.1C471.44 228.38 471.344 228.616 471.152 228.808C470.96 228.992 470.716 229.084 470.42 229.084ZM471.861 225.652C471.861 224.98 471.993 224.384 472.257 223.864C472.529 223.344 472.893 222.944 473.349 222.664C473.813 222.384 474.329 222.244 474.897 222.244C475.393 222.244 475.825 222.344 476.193 222.544C476.569 222.744 476.869 222.996 477.093 223.3V222.352H478.785V229H477.093V228.028C476.877 228.34 476.577 228.6 476.193 228.808C475.817 229.008 475.381 229.108 474.885 229.108C474.325 229.108 473.813 228.964 473.349 228.676C472.893 228.388 472.529 227.984 472.257 227.464C471.993 226.936 471.861 226.332 471.861 225.652ZM477.093 225.676C477.093 225.268 477.013 224.92 476.853 224.632C476.693 224.336 476.477 224.112 476.205 223.96C475.933 223.8 475.641 223.72 475.329 223.72C475.017 223.72 474.729 223.796 474.465 223.948C474.201 224.1 473.985 224.324 473.817 224.62C473.657 224.908 473.577 225.252 473.577 225.652C473.577 226.052 473.657 226.404 473.817 226.708C473.985 227.004 474.201 227.232 474.465 227.392C474.737 227.552 475.025 227.632 475.329 227.632C475.641 227.632 475.933 227.556 476.205 227.404C476.477 227.244 476.693 227.02 476.853 226.732C477.013 226.436 477.093 226.084 477.093 225.676ZM481.606 223.312C481.822 223.008 482.118 222.756 482.494 222.556C482.878 222.348 483.314 222.244 483.802 222.244C484.37 222.244 484.882 222.384 485.338 222.664C485.802 222.944 486.166 223.344 486.43 223.864C486.702 224.376 486.838 224.972 486.838 225.652C486.838 226.332 486.702 226.936 486.43 227.464C486.166 227.984 485.802 228.388 485.338 228.676C484.882 228.964 484.37 229.108 483.802 229.108C483.314 229.108 482.882 229.008 482.506 228.808C482.138 228.608 481.838 228.356 481.606 228.052V232.168H479.926V222.352H481.606V223.312ZM485.122 225.652C485.122 225.252 485.038 224.908 484.87 224.62C484.71 224.324 484.494 224.1 484.222 223.948C483.958 223.796 483.67 223.72 483.358 223.72C483.054 223.72 482.766 223.8 482.494 223.96C482.23 224.112 482.014 224.336 481.846 224.632C481.686 224.928 481.606 225.276 481.606 225.676C481.606 226.076 481.686 226.424 481.846 226.72C482.014 227.016 482.23 227.244 482.494 227.404C482.766 227.556 483.054 227.632 483.358 227.632C483.67 227.632 483.958 227.552 484.222 227.392C484.494 227.232 484.71 227.004 484.87 226.708C485.038 226.412 485.122 226.06 485.122 225.652ZM489.238 223.312C489.454 223.008 489.75 222.756 490.126 222.556C490.51 222.348 490.946 222.244 491.434 222.244C492.002 222.244 492.514 222.384 492.97 222.664C493.434 222.944 493.798 223.344 494.062 223.864C494.334 224.376 494.47 224.972 494.47 225.652C494.47 226.332 494.334 226.936 494.062 227.464C493.798 227.984 493.434 228.388 492.97 228.676C492.514 228.964 492.002 229.108 491.434 229.108C490.946 229.108 490.514 229.008 490.138 228.808C489.77 228.608 489.47 228.356 489.238 228.052V232.168H487.558V222.352H489.238V223.312ZM492.754 225.652C492.754 225.252 492.67 224.908 492.502 224.62C492.342 224.324 492.126 224.1 491.854 223.948C491.59 223.796 491.302 223.72 490.99 223.72C490.686 223.72 490.398 223.8 490.126 223.96C489.862 224.112 489.646 224.336 489.478 224.632C489.318 224.928 489.238 225.276 489.238 225.676C489.238 226.076 489.318 226.424 489.478 226.72C489.646 227.016 489.862 227.244 490.126 227.404C490.398 227.556 490.686 227.632 490.99 227.632C491.302 227.632 491.59 227.552 491.854 227.392C492.126 227.232 492.342 227.004 492.502 226.708C492.67 226.412 492.754 226.06 492.754 225.652Z" fill="white"/>
<path d="M32.016 54.336H37.536V57H28.656V40.248H32.016V54.336ZM38.3076 50.304C38.3076 48.96 38.5716 47.768 39.0996 46.728C39.6436 45.688 40.3716 44.888 41.2836 44.328C42.2116 43.768 43.2436 43.488 44.3796 43.488C45.3716 43.488 46.2356 43.688 46.9716 44.088C47.7236 44.488 48.3236 44.992 48.7716 45.6V43.704H52.1556V57H48.7716V55.056C48.3396 55.68 47.7396 56.2 46.9716 56.616C46.2196 57.016 45.3476 57.216 44.3556 57.216C43.2356 57.216 42.2116 56.928 41.2836 56.352C40.3716 55.776 39.6436 54.968 39.0996 53.928C38.5716 52.872 38.3076 51.664 38.3076 50.304ZM48.7716 50.352C48.7716 49.536 48.6116 48.84 48.2916 48.264C47.9716 47.672 47.5396 47.224 46.9956 46.92C46.4516 46.6 45.8676 46.44 45.2436 46.44C44.6196 46.44 44.0436 46.592 43.5156 46.896C42.9876 47.2 42.5556 47.648 42.2196 48.24C41.8996 48.816 41.7396 49.504 41.7396 50.304C41.7396 51.104 41.8996 51.808 42.2196 52.416C42.5556 53.008 42.9876 53.464 43.5156 53.784C44.0596 54.104 44.6356 54.264 45.2436 54.264C45.8676 54.264 46.4516 54.112 46.9956 53.808C47.5396 53.488 47.9716 53.04 48.2916 52.464C48.6116 51.872 48.7716 51.168 48.7716 50.352ZM58.2973 45.768C58.7293 45.064 59.2893 44.512 59.9773 44.112C60.6813 43.712 61.4813 43.512 62.3773 43.512V47.04H61.4893C60.4333 47.04 59.6333 47.288 59.0893 47.784C58.5613 48.28 58.2973 49.144 58.2973 50.376V57H54.9373V43.704H58.2973V45.768ZM63.2764 50.304C63.2764 48.96 63.5404 47.768 64.0684 46.728C64.6124 45.688 65.3404 44.888 66.2524 44.328C67.1804 43.768 68.2124 43.488 69.3484 43.488C70.3404 43.488 71.2044 43.688 71.9404 44.088C72.6924 44.488 73.2924 44.992 73.7404 45.6V43.704H77.1244V57H73.7404V55.056C73.3084 55.68 72.7084 56.2 71.9404 56.616C71.1884 57.016 70.3164 57.216 69.3244 57.216C68.2044 57.216 67.1804 56.928 66.2524 56.352C65.3404 55.776 64.6124 54.968 64.0684 53.928C63.5404 52.872 63.2764 51.664 63.2764 50.304ZM73.7404 50.352C73.7404 49.536 73.5804 48.84 73.2604 48.264C72.9404 47.672 72.5084 47.224 71.9644 46.92C71.4204 46.6 70.8364 46.44 70.2124 46.44C69.5884 46.44 69.0124 46.592 68.4844 46.896C67.9564 47.2 67.5244 47.648 67.1884 48.24C66.8684 48.816 66.7084 49.504 66.7084 50.304C66.7084 51.104 66.8684 51.808 67.1884 52.416C67.5244 53.008 67.9564 53.464 68.4844 53.784C69.0284 54.104 69.6044 54.264 70.2124 54.264C70.8364 54.264 71.4204 54.112 71.9644 53.808C72.5084 53.488 72.9404 53.04 73.2604 52.464C73.5804 51.872 73.7404 51.168 73.7404 50.352ZM85.45 53.904L88.81 43.704H92.386L87.466 57H83.386L78.49 43.704H82.09L85.45 53.904ZM106.133 50.064C106.133 50.544 106.101 50.976 106.037 51.36H96.3172C96.3972 52.32 96.7332 53.072 97.3252 53.616C97.9172 54.16 98.6452 54.432 99.5092 54.432C100.757 54.432 101.645 53.896 102.173 52.824H105.797C105.413 54.104 104.677 55.16 103.589 55.992C102.501 56.808 101.165 57.216 99.5812 57.216C98.3012 57.216 97.1492 56.936 96.1252 56.376C95.1172 55.8 94.3252 54.992 93.7492 53.952C93.1892 52.912 92.9092 51.712 92.9092 50.352C92.9092 48.976 93.1892 47.768 93.7492 46.728C94.3092 45.688 95.0932 44.888 96.1012 44.328C97.1092 43.768 98.2692 43.488 99.5812 43.488C100.845 43.488 101.973 43.76 102.965 44.304C103.973 44.848 104.749 45.624 105.293 46.632C105.853 47.624 106.133 48.768 106.133 50.064ZM102.653 49.104C102.637 48.24 102.325 47.552 101.717 47.04C101.109 46.512 100.365 46.248 99.4852 46.248C98.6532 46.248 97.9492 46.504 97.3732 47.016C96.8132 47.512 96.4692 48.208 96.3412 49.104H102.653ZM111.446 39.24V57H108.086V39.24H111.446ZM128.124 57L124.428 50.472H122.844V57H119.484V40.248H125.772C127.068 40.248 128.172 40.48 129.084 40.944C129.996 41.392 130.676 42.008 131.124 42.792C131.588 43.56 131.82 44.424 131.82 45.384C131.82 46.488 131.5 47.488 130.86 48.384C130.22 49.264 129.268 49.872 128.004 50.208L132.012 57H128.124ZM122.844 47.952H125.652C126.564 47.952 127.244 47.736 127.692 47.304C128.14 46.856 128.364 46.24 128.364 45.456C128.364 44.688 128.14 44.096 127.692 43.68C127.244 43.248 126.564 43.032 125.652 43.032H122.844V47.952ZM146.719 50.064C146.719 50.544 146.687 50.976 146.623 51.36H136.903C136.983 52.32 137.319 53.072 137.911 53.616C138.503 54.16 139.231 54.432 140.095 54.432C141.343 54.432 142.231 53.896 142.759 52.824H146.383C145.999 54.104 145.263 55.16 144.175 55.992C143.087 56.808 141.751 57.216 140.167 57.216C138.887 57.216 137.735 56.936 136.711 56.376C135.703 55.8 134.911 54.992 134.335 53.952C133.775 52.912 133.495 51.712 133.495 50.352C133.495 48.976 133.775 47.768 134.335 46.728C134.895 45.688 135.679 44.888 136.687 44.328C137.695 43.768 138.855 43.488 140.167 43.488C141.431 43.488 142.559 43.76 143.551 44.304C144.559 44.848 145.335 45.624 145.879 46.632C146.439 47.624 146.719 48.768 146.719 50.064ZM143.239 49.104C143.223 48.24 142.911 47.552 142.303 47.04C141.695 46.512 140.951 46.248 140.071 46.248C139.239 46.248 138.535 46.504 137.959 47.016C137.399 47.512 137.055 48.208 136.927 49.104H143.239ZM153.76 57.216C152.672 57.216 151.696 57.024 150.832 56.64C149.968 56.24 149.28 55.704 148.768 55.032C148.272 54.36 148 53.616 147.952 52.8H151.336C151.4 53.312 151.648 53.736 152.08 54.072C152.528 54.408 153.08 54.576 153.736 54.576C154.376 54.576 154.872 54.448 155.224 54.192C155.592 53.936 155.776 53.608 155.776 53.208C155.776 52.776 155.552 52.456 155.104 52.248C154.672 52.024 153.976 51.784 153.016 51.528C152.024 51.288 151.208 51.04 150.568 50.784C149.944 50.528 149.4 50.136 148.936 49.608C148.488 49.08 148.264 48.368 148.264 47.472C148.264 46.736 148.472 46.064 148.888 45.456C149.32 44.848 149.928 44.368 150.712 44.016C151.512 43.664 152.448 43.488 153.52 43.488C155.104 43.488 156.368 43.888 157.312 44.688C158.256 45.472 158.776 46.536 158.872 47.88H155.656C155.608 47.352 155.384 46.936 154.984 46.632C154.6 46.312 154.08 46.152 153.424 46.152C152.816 46.152 152.344 46.264 152.008 46.488C151.688 46.712 151.528 47.024 151.528 47.424C151.528 47.872 151.752 48.216 152.2 48.456C152.648 48.68 153.344 48.912 154.288 49.152C155.248 49.392 156.04 49.64 156.664 49.896C157.288 50.152 157.824 50.552 158.272 51.096C158.736 51.624 158.976 52.328 158.992 53.208C158.992 53.976 158.776 54.664 158.344 55.272C157.928 55.88 157.32 56.36 156.52 56.712C155.736 57.048 154.816 57.216 153.76 57.216ZM165.162 46.464V52.896C165.162 53.344 165.266 53.672 165.474 53.88C165.698 54.072 166.066 54.168 166.578 54.168H168.138V57H166.026C163.194 57 161.778 55.624 161.778 52.872V46.464H160.194V43.704H161.778V40.416H165.162V43.704H168.138V46.464H165.162ZM185.545 53.808H178.873L177.769 57H174.241L180.265 40.224H184.177L190.201 57H186.649L185.545 53.808ZM184.633 51.12L182.209 44.112L179.785 51.12H184.633ZM204.169 45.432C204.169 46.328 203.953 47.168 203.521 47.952C203.105 48.736 202.441 49.368 201.529 49.848C200.633 50.328 199.497 50.568 198.121 50.568H195.313V57H191.953V40.248H198.121C199.417 40.248 200.521 40.472 201.433 40.92C202.345 41.368 203.025 41.984 203.473 42.768C203.937 43.552 204.169 44.44 204.169 45.432ZM197.977 47.856C198.905 47.856 199.593 47.648 200.041 47.232C200.489 46.8 200.713 46.2 200.713 45.432C200.713 43.8 199.801 42.984 197.977 42.984H195.313V47.856H197.977ZM209.414 40.248V57H206.054V40.248H209.414Z" fill="#212529"/>
<path d="M29.508 77.668H32.268V79H27.828V70.624H29.508V77.668ZM32.4038 75.652C32.4038 74.98 32.5358 74.384 32.7998 73.864C33.0718 73.344 33.4358 72.944 33.8918 72.664C34.3558 72.384 34.8718 72.244 35.4398 72.244C35.9358 72.244 36.3678 72.344 36.7358 72.544C37.1118 72.744 37.4118 72.996 37.6358 73.3V72.352H39.3278V79H37.6358V78.028C37.4198 78.34 37.1198 78.6 36.7358 78.808C36.3598 79.008 35.9238 79.108 35.4278 79.108C34.8678 79.108 34.3558 78.964 33.8918 78.676C33.4358 78.388 33.0718 77.984 32.7998 77.464C32.5358 76.936 32.4038 76.332 32.4038 75.652ZM37.6358 75.676C37.6358 75.268 37.5558 74.92 37.3958 74.632C37.2358 74.336 37.0198 74.112 36.7478 73.96C36.4758 73.8 36.1838 73.72 35.8718 73.72C35.5598 73.72 35.2718 73.796 35.0078 73.948C34.7438 74.1 34.5278 74.324 34.3598 74.62C34.1998 74.908 34.1198 75.252 34.1198 75.652C34.1198 76.052 34.1998 76.404 34.3598 76.708C34.5278 77.004 34.7438 77.232 35.0078 77.392C35.2798 77.552 35.5678 77.632 35.8718 77.632C36.1838 77.632 36.4758 77.556 36.7478 77.404C37.0198 77.244 37.2358 77.02 37.3958 76.732C37.5558 76.436 37.6358 76.084 37.6358 75.676ZM42.1486 73.384C42.3646 73.032 42.6446 72.756 42.9886 72.556C43.3406 72.356 43.7406 72.256 44.1886 72.256V74.02H43.7446C43.2166 74.02 42.8166 74.144 42.5446 74.392C42.2806 74.64 42.1486 75.072 42.1486 75.688V79H40.4686V72.352H42.1486V73.384ZM44.3882 75.652C44.3882 74.98 44.5202 74.384 44.7842 73.864C45.0562 73.344 45.4202 72.944 45.8762 72.664C46.3402 72.384 46.8562 72.244 47.4242 72.244C47.9202 72.244 48.3522 72.344 48.7202 72.544C49.0962 72.744 49.3962 72.996 49.6202 73.3V72.352H51.3122V79H49.6202V78.028C49.4042 78.34 49.1042 78.6 48.7202 78.808C48.3442 79.008 47.9082 79.108 47.4122 79.108C46.8522 79.108 46.3402 78.964 45.8762 78.676C45.4202 78.388 45.0562 77.984 44.7842 77.464C44.5202 76.936 44.3882 76.332 44.3882 75.652ZM49.6202 75.676C49.6202 75.268 49.5402 74.92 49.3802 74.632C49.2202 74.336 49.0042 74.112 48.7322 73.96C48.4602 73.8 48.1682 73.72 47.8562 73.72C47.5442 73.72 47.2562 73.796 46.9922 73.948C46.7282 74.1 46.5122 74.324 46.3442 74.62C46.1842 74.908 46.1042 75.252 46.1042 75.652C46.1042 76.052 46.1842 76.404 46.3442 76.708C46.5122 77.004 46.7282 77.232 46.9922 77.392C47.2642 77.552 47.5522 77.632 47.8562 77.632C48.1682 77.632 48.4602 77.556 48.7322 77.404C49.0042 77.244 49.2202 77.02 49.3802 76.732C49.5402 76.436 49.6202 76.084 49.6202 75.676ZM55.225 77.452L56.905 72.352H58.693L56.233 79H54.193L51.745 72.352H53.545L55.225 77.452ZM65.3166 75.532C65.3166 75.772 65.3006 75.988 65.2686 76.18H60.4086C60.4486 76.66 60.6166 77.036 60.9126 77.308C61.2086 77.58 61.5726 77.716 62.0046 77.716C62.6286 77.716 63.0726 77.448 63.3366 76.912H65.1486C64.9566 77.552 64.5886 78.08 64.0446 78.496C63.5006 78.904 62.8326 79.108 62.0406 79.108C61.4006 79.108 60.8246 78.968 60.3126 78.688C59.8086 78.4 59.4126 77.996 59.1246 77.476C58.8446 76.956 58.7046 76.356 58.7046 75.676C58.7046 74.988 58.8446 74.384 59.1246 73.864C59.4046 73.344 59.7966 72.944 60.3006 72.664C60.8046 72.384 61.3846 72.244 62.0406 72.244C62.6726 72.244 63.2366 72.38 63.7326 72.652C64.2366 72.924 64.6246 73.312 64.8966 73.816C65.1766 74.312 65.3166 74.884 65.3166 75.532ZM63.5766 75.052C63.5686 74.62 63.4126 74.276 63.1086 74.02C62.8046 73.756 62.4326 73.624 61.9926 73.624C61.5766 73.624 61.2246 73.752 60.9366 74.008C60.6566 74.256 60.4846 74.604 60.4206 75.052H63.5766ZM67.7228 70.12V79H66.0428V70.12H67.7228ZM70.8461 71.8V70.252H73.7381V79H72.0101V71.8H70.8461ZM75.4257 77.104C76.1937 76.464 76.8057 75.932 77.2617 75.508C77.7177 75.076 78.0977 74.628 78.4017 74.164C78.7057 73.7 78.8577 73.244 78.8577 72.796C78.8577 72.388 78.7617 72.068 78.5697 71.836C78.3777 71.604 78.0817 71.488 77.6817 71.488C77.2817 71.488 76.9737 71.624 76.7577 71.896C76.5417 72.16 76.4297 72.524 76.4217 72.988H74.7897C74.8217 72.028 75.1057 71.3 75.6417 70.804C76.1857 70.308 76.8737 70.06 77.7057 70.06C78.6177 70.06 79.3177 70.304 79.8057 70.792C80.2937 71.272 80.5377 71.908 80.5377 72.7C80.5377 73.324 80.3697 73.92 80.0337 74.488C79.6977 75.056 79.3137 75.552 78.8817 75.976C78.4497 76.392 77.8857 76.896 77.1897 77.488H80.7297V78.88H74.8017V77.632L75.4257 77.104Z" fill="white"/>
<defs>
<linearGradient id="paint0_linear_366_281" x1="0" y1="130" x2="520" y2="130" gradientUnits="userSpaceOnUse">
<stop stop-color="#FF2D20"/>
<stop offset="0.0001" stop-color="#CC241A"/>
<stop offset="0.725962" stop-color="#991B13"/>
</linearGradient>
</defs>
</svg>
